SplineFontDB: 3.2
FontName: Daydream
FullName: Daydream
FamilyName: Daydream
Weight: Thin
Version: 1.0
ItalicAngle: 0
UnderlinePosition: 0
UnderlineWidth: 0
Ascent: 819
Descent: 205
InvalidEm: 0
sfntRevision: 0x00010000
LayerCount: 2
Layer: 0 1 "Atr+AOEA-s" 1
Layer: 1 1 "Fore" 0
XUID: [1021 146 -768951471 16745]
StyleMap: 0x0000
FSType: 8
OS2Version: 1
OS2_WeightWidthSlopeOnly: 0
OS2_UseTypoMetrics: 0
CreationTime: 1592661170
ModificationTime: 1654620471
PfmFamily: 81
TTFWeight: 0
TTFWidth: 5
LineGap: 92
VLineGap: 0
Panose: 0 0 4 0 0 0 0 0 0 0
OS2TypoAscent: 819
OS2TypoAOffset: 0
OS2TypoDescent: -205
OS2TypoDOffset: 0
OS2TypoLinegap: 92
OS2WinAscent: 864
OS2WinAOffset: 0
OS2WinDescent: 480
OS2WinDOffset: 0
HheadAscent: 864
HheadAOffset: 0
HheadDescent: -480
HheadDOffset: 0
OS2SubXSize: 665
OS2SubYSize: 716
OS2SubXOff: 0
OS2SubYOff: 143
OS2SupXSize: 665
OS2SupYSize: 716
OS2SupXOff: 0
OS2SupYOff: 491
OS2StrikeYSize: 51
OS2StrikeYPos: 265
OS2Vendor: 'PfEd'
OS2CodePages: 00000001.00000000
OS2UnicodeRanges: 00000001.00000000.00000000.00000000
Lookup: 258 0 0 "'kern' Interletraje horizontal en Latin b+APoA-squeda 0" { "'kern' Interletraje horizontal en Latin b+APoA-squeda 0 subtabla"  } ['kern' ('latn' <'dflt' > ) ]
DEI: 91125
ShortTable: maxp 16
  1
  0
  90
  56
  3
  0
  0
  2
  0
  1
  1
  0
  64
  0
  0
  0
EndShort
LangName: 1033 "" "" "" "FontForge 2.0 : Daydream : 20-6-2020" "" "Version 1.0"
GaspTable: 1 65535 2 0
Encoding: UnicodeBmp
UnicodeInterp: none
NameList: AGL For New Fonts
DisplaySize: -48
AntiAlias: 1
FitToEm: 0
WinInfo: 22 22 14
BeginChars: 65538 91

StartChar: .notdef
Encoding: 0 0 0
Width: 456
GlyphClass: 1
Flags: W
LayerCount: 2
Fore
SplineSet
40 675 m 1,0,-1
 457 675 l 1,1,-1
 457 0 l 1,2,-1
 40 0 l 1,3,-1
 40 675 l 1,0,-1
88 48 m 1,4,-1
 408 48 l 1,5,-1
 408 627 l 1,6,-1
 88 627 l 1,7,-1
 88 48 l 1,4,-1
EndSplineSet
EndChar

StartChar: space
Encoding: 32 32 3
Width: 288
GlyphClass: 2
Flags: W
LayerCount: 2
Fore
SplineSet
0 0 m 1024,0,-1
EndSplineSet
EndChar

StartChar: exclam
Encoding: 33 33 4
Width: 480
GlyphClass: 2
Flags: W
LayerCount: 2
Fore
SplineSet
136 768 m 1,0,-1
 136 864 l 1,1,-1
 328 864 l 1,2,-1
 328 768 l 1,3,-1
 424 768 l 1,4,-1
 424 288 l 1,5,-1
 328 288 l 1,6,-1
 328 0 l 1,7,-1
 136 0 l 1,8,-1
 136 288 l 1,9,-1
 40 288 l 1,10,-1
 40 768 l 1,11,-1
 136 768 l 1,0,-1
136 -192 m 1,12,-1
 136 -96 l 1,13,-1
 328 -96 l 1,14,-1
 328 -192 l 1,15,-1
 424 -192 l 1,16,-1
 424 -384 l 1,17,-1
 328 -384 l 1,18,-1
 328 -480 l 1,19,-1
 136 -480 l 1,20,-1
 136 -384 l 1,21,-1
 40 -384 l 1,22,-1
 40 -192 l 1,23,-1
 136 -192 l 1,12,-1
EndSplineSet
EndChar

StartChar: quotedbl
Encoding: 34 34 5
Width: 576
GlyphClass: 2
Flags: W
LayerCount: 2
Fore
SplineSet
40 480 m 1,0,-1
 40 864 l 1,1,-1
 232 864 l 1,2,-1
 232 576 l 1,3,-1
 136 576 l 1,4,-1
 136 480 l 1,5,-1
 40 480 l 1,0,-1
328 480 m 1,6,-1
 328 864 l 1,7,-1
 520 864 l 1,8,-1
 520 576 l 1,9,-1
 424 576 l 1,10,-1
 424 480 l 1,11,-1
 328 480 l 1,6,-1
EndSplineSet
EndChar

StartChar: numbersign
Encoding: 35 35 6
Width: 1440
GlyphClass: 2
Flags: W
LayerCount: 2
Fore
SplineSet
424 576 m 1,0,-1
 424 768 l 1,1,-1
 712 768 l 1,2,-1
 712 576 l 1,3,-1
 904 576 l 1,4,-1
 904 768 l 1,5,-1
 1192 768 l 1,6,-1
 1192 576 l 1,7,-1
 1384 576 l 1,8,-1
 1384 384 l 1,9,-1
 1288 384 l 1,10,-1
 1288 288 l 1,11,-1
 1096 288 l 1,12,-1
 1096 96 l 1,13,-1
 1288 96 l 1,14,-1
 1288 -96 l 1,15,-1
 1192 -96 l 1,16,-1
 1192 -192 l 1,17,-1
 1000 -192 l 1,18,-1
 1000 -384 l 1,19,-1
 712 -384 l 1,20,-1
 712 -192 l 1,21,-1
 520 -192 l 1,22,-1
 520 -384 l 1,23,-1
 232 -384 l 1,24,-1
 232 -192 l 1,25,-1
 40 -192 l 1,26,-1
 40 0 l 1,27,-1
 136 0 l 1,28,-1
 136 96 l 1,29,-1
 328 96 l 1,30,-1
 328 288 l 1,31,-1
 136 288 l 1,32,-1
 136 480 l 1,33,-1
 232 480 l 1,34,-1
 232 576 l 1,35,-1
 424 576 l 1,0,-1
808 288 m 1,36,-1
 616 288 l 1,37,-1
 616 96 l 1,38,-1
 808 96 l 1,39,-1
 808 288 l 1,36,-1
EndSplineSet
EndChar

StartChar: dollar
Encoding: 36 36 7
Width: 1056
GlyphClass: 2
Flags: W
LayerCount: 2
Fore
SplineSet
424 768 m 1,0,-1
 424 864 l 1,1,-1
 616 864 l 1,2,-1
 616 768 l 1,3,-1
 808 768 l 1,4,-1
 808 672 l 1,5,-1
 904 672 l 1,6,-1
 904 576 l 1,7,-1
 1000 576 l 1,8,-1
 1000 384 l 1,9,-1
 712 384 l 1,10,-1
 712 480 l 1,11,-1
 616 480 l 1,12,-1
 616 288 l 1,13,-1
 808 288 l 1,14,-1
 808 192 l 1,15,-1
 904 192 l 1,16,-1
 904 96 l 1,17,-1
 1000 96 l 1,18,-1
 1000 -192 l 1,19,-1
 904 -192 l 1,20,-1
 904 -288 l 1,21,-1
 808 -288 l 1,22,-1
 808 -384 l 1,23,-1
 616 -384 l 1,24,-1
 616 -480 l 1,25,-1
 424 -480 l 1,26,-1
 424 -384 l 1,27,-1
 232 -384 l 1,28,-1
 232 -288 l 1,29,-1
 136 -288 l 1,30,-1
 136 -192 l 1,31,-1
 40 -192 l 1,32,-1
 40 0 l 1,33,-1
 328 0 l 1,34,-1
 328 -96 l 1,35,-1
 424 -96 l 1,36,-1
 424 96 l 1,37,-1
 232 96 l 1,38,-1
 232 192 l 1,39,-1
 136 192 l 1,40,-1
 136 288 l 1,41,-1
 40 288 l 1,42,-1
 40 576 l 1,43,-1
 136 576 l 1,44,-1
 136 672 l 1,45,-1
 232 672 l 1,46,-1
 232 768 l 1,47,-1
 424 768 l 1,0,-1
424 480 m 1,48,-1
 328 480 l 1,49,-1
 328 384 l 1,50,-1
 424 384 l 1,51,-1
 424 480 l 1,48,-1
712 0 m 1,52,-1
 616 0 l 1,53,-1
 616 -96 l 1,54,-1
 712 -96 l 1,55,-1
 712 0 l 1,52,-1
EndSplineSet
EndChar

StartChar: percent
Encoding: 37 37 8
Width: 1248
GlyphClass: 2
Flags: W
LayerCount: 2
Fore
SplineSet
616 576 m 1,0,-1
 616 768 l 1,1,-1
 808 768 l 1,2,-1
 808 672 l 1,3,-1
 904 672 l 1,4,-1
 904 480 l 1,5,-1
 808 480 l 1,6,-1
 808 192 l 1,7,-1
 712 192 l 1,8,-1
 712 -192 l 1,9,-1
 616 -192 l 1,10,-1
 616 -384 l 1,11,-1
 424 -384 l 1,12,-1
 424 -288 l 1,13,-1
 328 -288 l 1,14,-1
 328 -96 l 1,15,-1
 424 -96 l 1,16,-1
 424 192 l 1,17,-1
 520 192 l 1,18,-1
 520 576 l 1,19,-1
 616 576 l 1,0,-1
136 576 m 1,20,-1
 136 672 l 1,21,-1
 328 672 l 1,22,-1
 328 576 l 1,23,-1
 424 576 l 1,24,-1
 424 384 l 1,25,-1
 328 384 l 1,26,-1
 328 288 l 1,27,-1
 136 288 l 1,28,-1
 136 384 l 1,29,-1
 40 384 l 1,30,-1
 40 576 l 1,31,-1
 136 576 l 1,20,-1
904 0 m 1,32,-1
 904 96 l 1,33,-1
 1096 96 l 1,34,-1
 1096 0 l 1,35,-1
 1192 0 l 1,36,-1
 1192 -192 l 1,37,-1
 1096 -192 l 1,38,-1
 1096 -288 l 1,39,-1
 904 -288 l 1,40,-1
 904 -192 l 1,41,-1
 808 -192 l 1,42,-1
 808 0 l 1,43,-1
 904 0 l 1,32,-1
EndSplineSet
EndChar

StartChar: ampersand
Encoding: 38 38 9
Width: 1056
GlyphClass: 2
Flags: W
LayerCount: 2
Fore
SplineSet
232 672 m 1,0,-1
 232 768 l 1,1,-1
 520 768 l 1,2,-1
 520 672 l 1,3,-1
 616 672 l 1,4,-1
 616 384 l 1,5,-1
 520 384 l 1,6,-1
 520 288 l 1,7,-1
 616 288 l 1,8,-1
 616 192 l 1,9,-1
 712 192 l 1,10,-1
 712 288 l 1,11,-1
 808 288 l 1,12,-1
 808 192 l 1,13,-1
 904 192 l 1,14,-1
 904 0 l 1,15,-1
 808 0 l 1,16,-1
 808 -96 l 1,17,-1
 904 -96 l 1,18,-1
 904 -192 l 1,19,-1
 1000 -192 l 1,20,-1
 1000 -288 l 1,21,-1
 904 -288 l 1,22,-1
 904 -384 l 1,23,-1
 808 -384 l 1,24,-1
 808 -288 l 1,25,-1
 616 -288 l 1,26,-1
 616 -384 l 1,27,-1
 136 -384 l 1,28,-1
 136 -288 l 1,29,-1
 40 -288 l 1,30,-1
 40 192 l 1,31,-1
 136 192 l 1,32,-1
 136 288 l 1,33,-1
 232 288 l 1,34,-1
 232 384 l 1,35,-1
 136 384 l 1,36,-1
 136 672 l 1,37,-1
 232 672 l 1,0,-1
424 576 m 1,38,-1
 328 576 l 1,39,-1
 328 480 l 1,40,-1
 424 480 l 1,41,-1
 424 576 l 1,38,-1
424 96 m 1,42,-1
 328 96 l 1,43,-1
 328 -96 l 1,44,-1
 520 -96 l 1,45,-1
 520 0 l 1,46,-1
 424 0 l 1,47,-1
 424 96 l 1,42,-1
EndSplineSet
EndChar

StartChar: quotesingle
Encoding: 39 39 10
Width: 288
GlyphClass: 2
Flags: W
LayerCount: 2
Fore
SplineSet
40 480 m 1,0,-1
 40 864 l 1,1,-1
 232 864 l 1,2,-1
 232 576 l 1,3,-1
 136 576 l 1,4,-1
 136 480 l 1,5,-1
 40 480 l 1,0,-1
EndSplineSet
EndChar

StartChar: parenleft
Encoding: 40 40 11
Width: 576
GlyphClass: 2
Flags: W
LayerCount: 2
Fore
SplineSet
328 768 m 1,0,-1
 328 864 l 1,1,-1
 520 864 l 1,2,-1
 520 768 l 1,3,-1
 424 768 l 1,4,-1
 424 576 l 1,5,-1
 328 576 l 1,6,-1
 328 -192 l 1,7,-1
 424 -192 l 1,8,-1
 424 -384 l 1,9,-1
 520 -384 l 1,10,-1
 520 -480 l 1,11,-1
 328 -480 l 1,12,-1
 328 -384 l 1,13,-1
 232 -384 l 1,14,-1
 232 -288 l 1,15,-1
 136 -288 l 1,16,-1
 136 -96 l 1,17,-1
 40 -96 l 1,18,-1
 40 480 l 1,19,-1
 136 480 l 1,20,-1
 136 672 l 1,21,-1
 232 672 l 1,22,-1
 232 768 l 1,23,-1
 328 768 l 1,0,-1
EndSplineSet
EndChar

StartChar: parenright
Encoding: 41 41 12
Width: 576
GlyphClass: 2
Flags: W
LayerCount: 2
Fore
SplineSet
40 768 m 1,0,-1
 40 864 l 1,1,-1
 232 864 l 1,2,-1
 232 768 l 1,3,-1
 328 768 l 1,4,-1
 328 672 l 1,5,-1
 424 672 l 1,6,-1
 424 480 l 1,7,-1
 520 480 l 1,8,-1
 520 -96 l 1,9,-1
 424 -96 l 1,10,-1
 424 -288 l 1,11,-1
 328 -288 l 1,12,-1
 328 -384 l 1,13,-1
 232 -384 l 1,14,-1
 232 -480 l 1,15,-1
 40 -480 l 1,16,-1
 40 -384 l 1,17,-1
 136 -384 l 1,18,-1
 136 -192 l 1,19,-1
 232 -192 l 1,20,-1
 232 576 l 1,21,-1
 136 576 l 1,22,-1
 136 768 l 1,23,-1
 40 768 l 1,0,-1
EndSplineSet
EndChar

StartChar: asterisk
Encoding: 42 42 13
Width: 864
GlyphClass: 2
Flags: W
LayerCount: 2
Fore
SplineSet
328 672 m 1,0,-1
 328 864 l 1,1,-1
 520 864 l 1,2,-1
 520 672 l 1,3,-1
 616 672 l 1,4,-1
 616 768 l 1,5,-1
 712 768 l 1,6,-1
 712 672 l 1,7,-1
 808 672 l 1,8,-1
 808 576 l 1,9,-1
 712 576 l 1,10,-1
 712 480 l 1,11,-1
 616 480 l 1,12,-1
 616 384 l 1,13,-1
 712 384 l 1,14,-1
 712 288 l 1,15,-1
 616 288 l 1,16,-1
 616 192 l 1,17,-1
 520 192 l 1,18,-1
 520 288 l 1,19,-1
 328 288 l 1,20,-1
 328 192 l 1,21,-1
 232 192 l 1,22,-1
 232 288 l 1,23,-1
 136 288 l 1,24,-1
 136 384 l 1,25,-1
 232 384 l 1,26,-1
 232 480 l 1,27,-1
 136 480 l 1,28,-1
 136 576 l 1,29,-1
 40 576 l 1,30,-1
 40 672 l 1,31,-1
 136 672 l 1,32,-1
 136 768 l 1,33,-1
 232 768 l 1,34,-1
 232 672 l 1,35,-1
 328 672 l 1,0,-1
EndSplineSet
EndChar

StartChar: plus
Encoding: 43 43 14
Width: 1056
GlyphClass: 2
Flags: W
LayerCount: 2
Fore
SplineSet
424 576 m 1,0,-1
 424 672 l 1,1,-1
 616 672 l 1,2,-1
 616 576 l 1,3,-1
 712 576 l 1,4,-1
 712 384 l 1,5,-1
 904 384 l 1,6,-1
 904 288 l 1,7,-1
 1000 288 l 1,8,-1
 1000 96 l 1,9,-1
 904 96 l 1,10,-1
 904 0 l 1,11,-1
 712 0 l 1,12,-1
 712 -192 l 1,13,-1
 616 -192 l 1,14,-1
 616 -288 l 1,15,-1
 424 -288 l 1,16,-1
 424 -192 l 1,17,-1
 328 -192 l 1,18,-1
 328 0 l 1,19,-1
 136 0 l 1,20,-1
 136 96 l 1,21,-1
 40 96 l 1,22,-1
 40 288 l 1,23,-1
 136 288 l 1,24,-1
 136 384 l 1,25,-1
 328 384 l 1,26,-1
 328 576 l 1,27,-1
 424 576 l 1,0,-1
EndSplineSet
EndChar

StartChar: comma
Encoding: 44 44 15
Width: 480
GlyphClass: 2
Flags: W
LayerCount: 2
Fore
SplineSet
136 -96 m 1,0,-1
 136 0 l 1,1,-1
 328 0 l 1,2,-1
 328 -96 l 1,3,-1
 424 -96 l 1,4,-1
 424 -384 l 1,5,-1
 328 -384 l 1,6,-1
 328 -480 l 1,7,-1
 40 -480 l 1,8,-1
 40 -384 l 1,9,-1
 136 -384 l 1,10,-1
 136 -288 l 1,11,-1
 40 -288 l 1,12,-1
 40 -96 l 1,13,-1
 136 -96 l 1,0,-1
EndSplineSet
EndChar

StartChar: hyphen
Encoding: 45 45 16
Width: 960
GlyphClass: 2
Flags: W
LayerCount: 2
Fore
SplineSet
136 288 m 1,0,-1
 136 384 l 1,1,-1
 808 384 l 1,2,-1
 808 288 l 1,3,-1
 904 288 l 1,4,-1
 904 96 l 1,5,-1
 808 96 l 1,6,-1
 808 0 l 1,7,-1
 136 0 l 1,8,-1
 136 96 l 1,9,-1
 40 96 l 1,10,-1
 40 288 l 1,11,-1
 136 288 l 1,0,-1
EndSplineSet
EndChar

StartChar: period
Encoding: 46 46 17
Width: 480
GlyphClass: 2
Flags: W
LayerCount: 2
Fore
SplineSet
136 -96 m 1,0,-1
 136 0 l 1,1,-1
 328 0 l 1,2,-1
 328 -96 l 1,3,-1
 424 -96 l 1,4,-1
 424 -288 l 1,5,-1
 328 -288 l 1,6,-1
 328 -384 l 1,7,-1
 136 -384 l 1,8,-1
 136 -288 l 1,9,-1
 40 -288 l 1,10,-1
 40 -96 l 1,11,-1
 136 -96 l 1,0,-1
EndSplineSet
EndChar

StartChar: slash
Encoding: 47 47 18
Width: 672
GlyphClass: 2
Flags: W
LayerCount: 2
Fore
SplineSet
328 576 m 1,0,-1
 328 768 l 1,1,-1
 520 768 l 1,2,-1
 520 672 l 1,3,-1
 616 672 l 1,4,-1
 616 480 l 1,5,-1
 520 480 l 1,6,-1
 520 192 l 1,7,-1
 424 192 l 1,8,-1
 424 -192 l 1,9,-1
 328 -192 l 1,10,-1
 328 -384 l 1,11,-1
 136 -384 l 1,12,-1
 136 -288 l 1,13,-1
 40 -288 l 1,14,-1
 40 -96 l 1,15,-1
 136 -96 l 1,16,-1
 136 192 l 1,17,-1
 232 192 l 1,18,-1
 232 576 l 1,19,-1
 328 576 l 1,0,-1
EndSplineSet
EndChar

StartChar: zero
Encoding: 48 48 19
Width: 1056
GlyphClass: 2
Flags: W
LayerCount: 2
Fore
SplineSet
328 672 m 1,0,-1
 328 768 l 1,1,-1
 808 768 l 1,2,-1
 808 672 l 1,3,-1
 904 672 l 1,4,-1
 904 480 l 1,5,-1
 1000 480 l 1,6,-1
 1000 -96 l 1,7,-1
 904 -96 l 1,8,-1
 904 -288 l 1,9,-1
 808 -288 l 1,10,-1
 808 -384 l 1,11,-1
 232 -384 l 1,12,-1
 232 -288 l 1,13,-1
 136 -288 l 1,14,-1
 136 -96 l 1,15,-1
 40 -96 l 1,16,-1
 40 384 l 1,17,-1
 136 384 l 1,18,-1
 136 576 l 1,19,-1
 232 576 l 1,20,-1
 232 672 l 1,21,-1
 328 672 l 1,0,-1
616 480 m 1,22,-1
 520 480 l 1,23,-1
 520 384 l 1,24,-1
 424 384 l 1,25,-1
 424 96 l 1,26,-1
 520 96 l 1,27,-1
 520 0 l 1,28,-1
 616 0 l 1,29,-1
 616 96 l 1,30,-1
 712 96 l 1,31,-1
 712 384 l 1,32,-1
 616 384 l 1,33,-1
 616 480 l 1,22,-1
EndSplineSet
EndChar

StartChar: one
Encoding: 49 49 20
Width: 672
GlyphClass: 2
Flags: W
LayerCount: 2
Fore
SplineSet
136 672 m 1,0,-1
 136 768 l 1,1,-1
 520 768 l 1,2,-1
 520 672 l 1,3,-1
 616 672 l 1,4,-1
 616 -288 l 1,5,-1
 520 -288 l 1,6,-1
 520 -384 l 1,7,-1
 328 -384 l 1,8,-1
 328 -288 l 1,9,-1
 232 -288 l 1,10,-1
 232 384 l 1,11,-1
 136 384 l 1,12,-1
 136 480 l 1,13,-1
 40 480 l 1,14,-1
 40 672 l 1,15,-1
 136 672 l 1,0,-1
EndSplineSet
EndChar

StartChar: two
Encoding: 50 50 21
Width: 960
GlyphClass: 2
Flags: W
LayerCount: 2
Fore
SplineSet
136 672 m 1,0,-1
 136 768 l 1,1,-1
 712 768 l 1,2,-1
 712 672 l 1,3,-1
 808 672 l 1,4,-1
 808 192 l 1,5,-1
 712 192 l 1,6,-1
 712 96 l 1,7,-1
 616 96 l 1,8,-1
 616 0 l 1,9,-1
 520 0 l 1,10,-1
 520 -96 l 1,11,-1
 616 -96 l 1,12,-1
 616 0 l 1,13,-1
 808 0 l 1,14,-1
 808 -96 l 1,15,-1
 904 -96 l 1,16,-1
 904 -288 l 1,17,-1
 808 -288 l 1,18,-1
 808 -384 l 1,19,-1
 40 -384 l 1,20,-1
 40 -96 l 1,21,-1
 136 -96 l 1,22,-1
 136 96 l 1,23,-1
 232 96 l 1,24,-1
 232 192 l 1,25,-1
 328 192 l 1,26,-1
 328 288 l 1,27,-1
 424 288 l 1,28,-1
 424 480 l 1,29,-1
 328 480 l 1,30,-1
 328 384 l 1,31,-1
 136 384 l 1,32,-1
 136 480 l 1,33,-1
 40 480 l 1,34,-1
 40 672 l 1,35,-1
 136 672 l 1,0,-1
EndSplineSet
EndChar

StartChar: three
Encoding: 51 51 22
Width: 1056
GlyphClass: 2
Flags: W
LayerCount: 2
Fore
SplineSet
232 672 m 1,0,-1
 232 768 l 1,1,-1
 808 768 l 1,2,-1
 808 672 l 1,3,-1
 904 672 l 1,4,-1
 904 288 l 1,5,-1
 808 288 l 1,6,-1
 808 192 l 1,7,-1
 904 192 l 1,8,-1
 904 96 l 1,9,-1
 1000 96 l 1,10,-1
 1000 -192 l 1,11,-1
 904 -192 l 1,12,-1
 904 -288 l 1,13,-1
 808 -288 l 1,14,-1
 808 -384 l 1,15,-1
 328 -384 l 1,16,-1
 328 -288 l 1,17,-1
 136 -288 l 1,18,-1
 136 -192 l 1,19,-1
 40 -192 l 1,20,-1
 40 -96 l 1,21,-1
 136 -96 l 1,22,-1
 136 0 l 1,23,-1
 232 0 l 1,24,-1
 232 96 l 1,25,-1
 424 96 l 1,26,-1
 424 0 l 1,27,-1
 520 0 l 1,28,-1
 520 192 l 1,29,-1
 424 192 l 1,30,-1
 424 288 l 1,31,-1
 520 288 l 1,32,-1
 520 480 l 1,33,-1
 424 480 l 1,34,-1
 424 384 l 1,35,-1
 232 384 l 1,36,-1
 232 480 l 1,37,-1
 136 480 l 1,38,-1
 136 672 l 1,39,-1
 232 672 l 1,0,-1
EndSplineSet
EndChar

StartChar: four
Encoding: 52 52 23
Width: 1056
GlyphClass: 2
Flags: W
LayerCount: 2
Fore
SplineSet
232 672 m 1,0,-1
 232 768 l 1,1,-1
 424 768 l 1,2,-1
 424 672 l 1,3,-1
 520 672 l 1,4,-1
 520 480 l 1,5,-1
 424 480 l 1,6,-1
 424 288 l 1,7,-1
 616 288 l 1,8,-1
 616 672 l 1,9,-1
 712 672 l 1,10,-1
 712 768 l 1,11,-1
 904 768 l 1,12,-1
 904 672 l 1,13,-1
 1000 672 l 1,14,-1
 1000 192 l 1,15,-1
 904 192 l 1,16,-1
 904 -288 l 1,17,-1
 808 -288 l 1,18,-1
 808 -384 l 1,19,-1
 616 -384 l 1,20,-1
 616 -288 l 1,21,-1
 520 -288 l 1,22,-1
 520 -96 l 1,23,-1
 328 -96 l 1,24,-1
 328 0 l 1,25,-1
 136 0 l 1,26,-1
 136 96 l 1,27,-1
 40 96 l 1,28,-1
 40 384 l 1,29,-1
 136 384 l 1,30,-1
 136 672 l 1,31,-1
 232 672 l 1,0,-1
EndSplineSet
EndChar

StartChar: five
Encoding: 53 53 24
Width: 960
GlyphClass: 2
Flags: W
LayerCount: 2
Fore
SplineSet
232 672 m 1,0,-1
 232 768 l 1,1,-1
 808 768 l 1,2,-1
 808 576 l 1,3,-1
 712 576 l 1,4,-1
 712 480 l 1,5,-1
 424 480 l 1,6,-1
 424 384 l 1,7,-1
 712 384 l 1,8,-1
 712 288 l 1,9,-1
 808 288 l 1,10,-1
 808 192 l 1,11,-1
 904 192 l 1,12,-1
 904 -192 l 1,13,-1
 808 -192 l 1,14,-1
 808 -288 l 1,15,-1
 712 -288 l 1,16,-1
 712 -384 l 1,17,-1
 136 -384 l 1,18,-1
 136 -288 l 1,19,-1
 40 -288 l 1,20,-1
 40 -96 l 1,21,-1
 136 -96 l 1,22,-1
 136 0 l 1,23,-1
 232 0 l 1,24,-1
 232 96 l 1,25,-1
 424 96 l 1,26,-1
 424 0 l 1,27,-1
 520 0 l 1,28,-1
 520 96 l 1,29,-1
 424 96 l 1,30,-1
 424 192 l 1,31,-1
 136 192 l 1,32,-1
 136 672 l 1,33,-1
 232 672 l 1,0,-1
EndSplineSet
EndChar

StartChar: six
Encoding: 54 54 25
Width: 960
GlyphClass: 2
Flags: W
LayerCount: 2
Fore
SplineSet
328 672 m 1,0,-1
 328 768 l 1,1,-1
 616 768 l 1,2,-1
 616 672 l 1,3,-1
 712 672 l 1,4,-1
 712 480 l 1,5,-1
 616 480 l 1,6,-1
 616 384 l 1,7,-1
 712 384 l 1,8,-1
 712 288 l 1,9,-1
 808 288 l 1,10,-1
 808 192 l 1,11,-1
 904 192 l 1,12,-1
 904 -192 l 1,13,-1
 808 -192 l 1,14,-1
 808 -288 l 1,15,-1
 712 -288 l 1,16,-1
 712 -384 l 1,17,-1
 232 -384 l 1,18,-1
 232 -288 l 1,19,-1
 136 -288 l 1,20,-1
 136 -192 l 1,21,-1
 40 -192 l 1,22,-1
 40 288 l 1,23,-1
 136 288 l 1,24,-1
 136 480 l 1,25,-1
 232 480 l 1,26,-1
 232 672 l 1,27,-1
 328 672 l 1,0,-1
520 96 m 1,28,-1
 328 96 l 1,29,-1
 328 -96 l 1,30,-1
 520 -96 l 1,31,-1
 520 96 l 1,28,-1
EndSplineSet
EndChar

StartChar: seven
Encoding: 55 55 26
Width: 960
GlyphClass: 2
Flags: W
LayerCount: 2
Fore
SplineSet
136 672 m 1,0,-1
 136 768 l 1,1,-1
 808 768 l 1,2,-1
 808 672 l 1,3,-1
 904 672 l 1,4,-1
 904 288 l 1,5,-1
 808 288 l 1,6,-1
 808 0 l 1,7,-1
 712 0 l 1,8,-1
 712 -288 l 1,9,-1
 616 -288 l 1,10,-1
 616 -384 l 1,11,-1
 328 -384 l 1,12,-1
 328 -288 l 1,13,-1
 232 -288 l 1,14,-1
 232 -96 l 1,15,-1
 328 -96 l 1,16,-1
 328 96 l 1,17,-1
 424 96 l 1,18,-1
 424 288 l 1,19,-1
 520 288 l 1,20,-1
 520 480 l 1,21,-1
 424 480 l 1,22,-1
 424 384 l 1,23,-1
 136 384 l 1,24,-1
 136 480 l 1,25,-1
 40 480 l 1,26,-1
 40 672 l 1,27,-1
 136 672 l 1,0,-1
EndSplineSet
EndChar

StartChar: eight
Encoding: 56 56 27
Width: 1056
GlyphClass: 2
Flags: W
LayerCount: 2
Fore
SplineSet
232 672 m 1,0,-1
 232 768 l 1,1,-1
 808 768 l 1,2,-1
 808 672 l 1,3,-1
 904 672 l 1,4,-1
 904 288 l 1,5,-1
 808 288 l 1,6,-1
 808 192 l 1,7,-1
 904 192 l 1,8,-1
 904 96 l 1,9,-1
 1000 96 l 1,10,-1
 1000 -288 l 1,11,-1
 904 -288 l 1,12,-1
 904 -384 l 1,13,-1
 136 -384 l 1,14,-1
 136 -288 l 1,15,-1
 40 -288 l 1,16,-1
 40 96 l 1,17,-1
 136 96 l 1,18,-1
 136 192 l 1,19,-1
 232 192 l 1,20,-1
 232 288 l 1,21,-1
 136 288 l 1,22,-1
 136 672 l 1,23,-1
 232 672 l 1,0,-1
616 480 m 1,24,-1
 424 480 l 1,25,-1
 424 384 l 1,26,-1
 616 384 l 1,27,-1
 616 480 l 1,24,-1
616 96 m 1,28,-1
 424 96 l 1,29,-1
 424 0 l 1,30,-1
 616 0 l 1,31,-1
 616 96 l 1,28,-1
EndSplineSet
EndChar

StartChar: nine
Encoding: 57 57 28
Width: 960
GlyphClass: 2
Flags: W
LayerCount: 2
Fore
SplineSet
232 672 m 1,0,-1
 232 768 l 1,1,-1
 712 768 l 1,2,-1
 712 672 l 1,3,-1
 808 672 l 1,4,-1
 808 576 l 1,5,-1
 904 576 l 1,6,-1
 904 0 l 1,7,-1
 808 0 l 1,8,-1
 808 -192 l 1,9,-1
 712 -192 l 1,10,-1
 712 -288 l 1,11,-1
 616 -288 l 1,12,-1
 616 -384 l 1,13,-1
 328 -384 l 1,14,-1
 328 -288 l 1,15,-1
 232 -288 l 1,16,-1
 232 -96 l 1,17,-1
 328 -96 l 1,18,-1
 328 0 l 1,19,-1
 232 0 l 1,20,-1
 232 96 l 1,21,-1
 136 96 l 1,22,-1
 136 192 l 1,23,-1
 40 192 l 1,24,-1
 40 576 l 1,25,-1
 136 576 l 1,26,-1
 136 672 l 1,27,-1
 232 672 l 1,0,-1
616 480 m 1,28,-1
 424 480 l 1,29,-1
 424 288 l 1,30,-1
 616 288 l 1,31,-1
 616 480 l 1,28,-1
EndSplineSet
EndChar

StartChar: colon
Encoding: 58 58 29
Width: 480
GlyphClass: 2
Flags: W
LayerCount: 2
Fore
SplineSet
136 480 m 1,0,-1
 136 576 l 1,1,-1
 328 576 l 1,2,-1
 328 480 l 1,3,-1
 424 480 l 1,4,-1
 424 288 l 1,5,-1
 328 288 l 1,6,-1
 328 192 l 1,7,-1
 136 192 l 1,8,-1
 136 288 l 1,9,-1
 40 288 l 1,10,-1
 40 480 l 1,11,-1
 136 480 l 1,0,-1
136 -96 m 1,12,-1
 136 0 l 1,13,-1
 328 0 l 1,14,-1
 328 -96 l 1,15,-1
 424 -96 l 1,16,-1
 424 -288 l 1,17,-1
 328 -288 l 1,18,-1
 328 -384 l 1,19,-1
 136 -384 l 1,20,-1
 136 -288 l 1,21,-1
 40 -288 l 1,22,-1
 40 -96 l 1,23,-1
 136 -96 l 1,12,-1
EndSplineSet
EndChar

StartChar: semicolon
Encoding: 59 59 30
Width: 480
GlyphClass: 2
Flags: W
LayerCount: 2
Fore
SplineSet
136 480 m 1,0,-1
 136 576 l 1,1,-1
 328 576 l 1,2,-1
 328 480 l 1,3,-1
 424 480 l 1,4,-1
 424 288 l 1,5,-1
 328 288 l 1,6,-1
 328 192 l 1,7,-1
 136 192 l 1,8,-1
 136 288 l 1,9,-1
 40 288 l 1,10,-1
 40 480 l 1,11,-1
 136 480 l 1,0,-1
136 -96 m 1,12,-1
 136 0 l 1,13,-1
 328 0 l 1,14,-1
 328 -96 l 1,15,-1
 424 -96 l 1,16,-1
 424 -384 l 1,17,-1
 328 -384 l 1,18,-1
 328 -480 l 1,19,-1
 40 -480 l 1,20,-1
 40 -384 l 1,21,-1
 136 -384 l 1,22,-1
 136 -288 l 1,23,-1
 40 -288 l 1,24,-1
 40 -96 l 1,25,-1
 136 -96 l 1,12,-1
EndSplineSet
EndChar

StartChar: less
Encoding: 60 60 31
Width: 672
GlyphClass: 2
Flags: W
LayerCount: 2
Fore
SplineSet
328 480 m 1,0,-1
 328 576 l 1,1,-1
 520 576 l 1,2,-1
 520 480 l 1,3,-1
 616 480 l 1,4,-1
 616 288 l 1,5,-1
 520 288 l 1,6,-1
 520 192 l 1,7,-1
 424 192 l 1,8,-1
 424 96 l 1,9,-1
 520 96 l 1,10,-1
 520 0 l 1,11,-1
 616 0 l 1,12,-1
 616 -192 l 1,13,-1
 520 -192 l 1,14,-1
 520 -288 l 1,15,-1
 328 -288 l 1,16,-1
 328 -192 l 1,17,-1
 232 -192 l 1,18,-1
 232 -96 l 1,19,-1
 136 -96 l 1,20,-1
 136 0 l 1,21,-1
 40 0 l 1,22,-1
 40 288 l 1,23,-1
 136 288 l 1,24,-1
 136 384 l 1,25,-1
 232 384 l 1,26,-1
 232 480 l 1,27,-1
 328 480 l 1,0,-1
EndSplineSet
EndChar

StartChar: equal
Encoding: 61 61 32
Width: 960
GlyphClass: 2
Flags: W
LayerCount: 2
Fore
SplineSet
136 480 m 1,0,-1
 136 576 l 1,1,-1
 808 576 l 1,2,-1
 808 480 l 1,3,-1
 904 480 l 1,4,-1
 904 288 l 1,5,-1
 808 288 l 1,6,-1
 808 192 l 1,7,-1
 136 192 l 1,8,-1
 136 288 l 1,9,-1
 40 288 l 1,10,-1
 40 480 l 1,11,-1
 136 480 l 1,0,-1
136 0 m 1,12,-1
 136 96 l 1,13,-1
 808 96 l 1,14,-1
 808 0 l 1,15,-1
 904 0 l 1,16,-1
 904 -192 l 1,17,-1
 808 -192 l 1,18,-1
 808 -288 l 1,19,-1
 136 -288 l 1,20,-1
 136 -192 l 1,21,-1
 40 -192 l 1,22,-1
 40 0 l 1,23,-1
 136 0 l 1,12,-1
EndSplineSet
EndChar

StartChar: greater
Encoding: 62 62 33
Width: 672
GlyphClass: 2
Flags: W
LayerCount: 2
Fore
SplineSet
136 480 m 1,0,-1
 136 576 l 1,1,-1
 328 576 l 1,2,-1
 328 480 l 1,3,-1
 424 480 l 1,4,-1
 424 384 l 1,5,-1
 520 384 l 1,6,-1
 520 288 l 1,7,-1
 616 288 l 1,8,-1
 616 0 l 1,9,-1
 520 0 l 1,10,-1
 520 -96 l 1,11,-1
 424 -96 l 1,12,-1
 424 -192 l 1,13,-1
 328 -192 l 1,14,-1
 328 -288 l 1,15,-1
 136 -288 l 1,16,-1
 136 -192 l 1,17,-1
 40 -192 l 1,18,-1
 40 0 l 1,19,-1
 136 0 l 1,20,-1
 136 96 l 1,21,-1
 232 96 l 1,22,-1
 232 192 l 1,23,-1
 136 192 l 1,24,-1
 136 288 l 1,25,-1
 40 288 l 1,26,-1
 40 480 l 1,27,-1
 136 480 l 1,0,-1
EndSplineSet
EndChar

StartChar: question
Encoding: 63 63 34
Width: 960
GlyphClass: 2
Flags: W
LayerCount: 2
Fore
SplineSet
136 768 m 1,0,-1
 136 864 l 1,1,-1
 808 864 l 1,2,-1
 808 768 l 1,3,-1
 904 768 l 1,4,-1
 904 288 l 1,5,-1
 808 288 l 1,6,-1
 808 192 l 1,7,-1
 712 192 l 1,8,-1
 712 96 l 1,9,-1
 520 96 l 1,10,-1
 520 0 l 1,11,-1
 328 0 l 1,12,-1
 328 192 l 1,13,-1
 424 192 l 1,14,-1
 424 384 l 1,15,-1
 520 384 l 1,16,-1
 520 576 l 1,17,-1
 424 576 l 1,18,-1
 424 480 l 1,19,-1
 328 480 l 1,20,-1
 328 384 l 1,21,-1
 136 384 l 1,22,-1
 136 480 l 1,23,-1
 40 480 l 1,24,-1
 40 768 l 1,25,-1
 136 768 l 1,0,-1
328 -192 m 1,26,-1
 328 -96 l 1,27,-1
 520 -96 l 1,28,-1
 520 -192 l 1,29,-1
 616 -192 l 1,30,-1
 616 -384 l 1,31,-1
 520 -384 l 1,32,-1
 520 -480 l 1,33,-1
 328 -480 l 1,34,-1
 328 -384 l 1,35,-1
 232 -384 l 1,36,-1
 232 -192 l 1,37,-1
 328 -192 l 1,26,-1
EndSplineSet
EndChar

StartChar: at
Encoding: 64 64 35
Width: 1248
GlyphClass: 2
Flags: W
LayerCount: 2
Fore
SplineSet
232 672 m 1,0,-1
 232 768 l 1,1,-1
 1000 768 l 1,2,-1
 1000 672 l 1,3,-1
 1096 672 l 1,4,-1
 1096 576 l 1,5,-1
 1192 576 l 1,6,-1
 1192 -96 l 1,7,-1
 1096 -96 l 1,8,-1
 1096 -192 l 1,9,-1
 808 -192 l 1,10,-1
 808 -96 l 1,11,-1
 424 -96 l 1,12,-1
 424 0 l 1,13,-1
 328 0 l 1,14,-1
 328 384 l 1,15,-1
 424 384 l 1,16,-1
 424 480 l 1,17,-1
 712 480 l 1,18,-1
 712 384 l 1,19,-1
 808 384 l 1,20,-1
 808 480 l 1,21,-1
 904 480 l 1,22,-1
 904 0 l 1,23,-1
 1000 0 l 1,24,-1
 1000 480 l 1,25,-1
 904 480 l 1,26,-1
 904 576 l 1,27,-1
 328 576 l 1,28,-1
 328 480 l 1,29,-1
 232 480 l 1,30,-1
 232 -96 l 1,31,-1
 328 -96 l 1,32,-1
 328 -192 l 1,33,-1
 616 -192 l 1,34,-1
 616 -384 l 1,35,-1
 232 -384 l 1,36,-1
 232 -288 l 1,37,-1
 136 -288 l 1,38,-1
 136 -192 l 1,39,-1
 40 -192 l 1,40,-1
 40 576 l 1,41,-1
 136 576 l 1,42,-1
 136 672 l 1,43,-1
 232 672 l 1,0,-1
712 288 m 1,44,-1
 520 288 l 1,45,-1
 520 96 l 1,46,-1
 712 96 l 1,47,-1
 712 288 l 1,44,-1
EndSplineSet
EndChar

StartChar: A
Encoding: 65 65 36
Width: 1152
GlyphClass: 2
Flags: W
LayerCount: 2
Fore
SplineSet
520 672 m 1,0,-1
 520 768 l 1,1,-1
 904 768 l 1,2,-1
 904 672 l 1,3,-1
 1000 672 l 1,4,-1
 1000 480 l 1,5,-1
 1096 480 l 1,6,-1
 1096 -288 l 1,7,-1
 1000 -288 l 1,8,-1
 1000 -384 l 1,9,-1
 808 -384 l 1,10,-1
 808 -288 l 1,11,-1
 712 -288 l 1,12,-1
 712 -192 l 1,13,-1
 616 -192 l 1,14,-1
 616 -96 l 1,15,-1
 424 -96 l 1,16,-1
 424 -192 l 1,17,-1
 328 -192 l 1,18,-1
 328 -288 l 1,19,-1
 136 -288 l 1,20,-1
 136 -192 l 1,21,-1
 40 -192 l 1,22,-1
 40 96 l 1,23,-1
 136 96 l 1,24,-1
 136 288 l 1,25,-1
 232 288 l 1,26,-1
 232 480 l 1,27,-1
 328 480 l 1,28,-1
 328 576 l 1,29,-1
 424 576 l 1,30,-1
 424 672 l 1,31,-1
 520 672 l 1,0,-1
808 384 m 1,32,-1
 616 384 l 1,33,-1
 616 288 l 1,34,-1
 520 288 l 1,35,-1
 520 192 l 1,36,-1
 712 192 l 1,37,-1
 712 96 l 1,38,-1
 808 96 l 1,39,-1
 808 384 l 1,32,-1
EndSplineSet
EndChar

StartChar: B
Encoding: 66 66 37
Width: 1152
GlyphClass: 2
Flags: W
LayerCount: 2
Fore
SplineSet
328 672 m 1,0,-1
 328 768 l 1,1,-1
 712 768 l 1,2,-1
 712 672 l 1,3,-1
 904 672 l 1,4,-1
 904 576 l 1,5,-1
 1000 576 l 1,6,-1
 1000 288 l 1,7,-1
 904 288 l 1,8,-1
 904 192 l 1,9,-1
 1000 192 l 1,10,-1
 1000 96 l 1,11,-1
 1096 96 l 1,12,-1
 1096 -288 l 1,13,-1
 904 -288 l 1,14,-1
 904 -384 l 1,15,-1
 136 -384 l 1,16,-1
 136 -288 l 1,17,-1
 40 -288 l 1,18,-1
 40 192 l 1,19,-1
 136 192 l 1,20,-1
 136 480 l 1,21,-1
 232 480 l 1,22,-1
 232 672 l 1,23,-1
 328 672 l 1,0,-1
616 480 m 1,24,-1
 520 480 l 1,25,-1
 520 384 l 1,26,-1
 424 384 l 1,27,-1
 424 288 l 1,28,-1
 616 288 l 1,29,-1
 616 480 l 1,24,-1
616 96 m 1,30,-1
 424 96 l 1,31,-1
 424 -96 l 1,32,-1
 616 -96 l 1,33,-1
 616 96 l 1,30,-1
EndSplineSet
EndChar

StartChar: C
Encoding: 67 67 38
Width: 1056
GlyphClass: 2
Flags: W
LayerCount: 2
Fore
SplineSet
424 672 m 1,0,-1
 424 768 l 1,1,-1
 808 768 l 1,2,-1
 808 672 l 1,3,-1
 904 672 l 1,4,-1
 904 480 l 1,5,-1
 808 480 l 1,6,-1
 808 384 l 1,7,-1
 520 384 l 1,8,-1
 520 288 l 1,9,-1
 424 288 l 1,10,-1
 424 96 l 1,11,-1
 520 96 l 1,12,-1
 520 0 l 1,13,-1
 712 0 l 1,14,-1
 712 96 l 1,15,-1
 904 96 l 1,16,-1
 904 0 l 1,17,-1
 1000 0 l 1,18,-1
 1000 -288 l 1,19,-1
 808 -288 l 1,20,-1
 808 -384 l 1,21,-1
 424 -384 l 1,22,-1
 424 -288 l 1,23,-1
 232 -288 l 1,24,-1
 232 -192 l 1,25,-1
 136 -192 l 1,26,-1
 136 0 l 1,27,-1
 40 0 l 1,28,-1
 40 384 l 1,29,-1
 136 384 l 1,30,-1
 136 576 l 1,31,-1
 232 576 l 1,32,-1
 232 672 l 1,33,-1
 424 672 l 1,0,-1
EndSplineSet
EndChar

StartChar: D
Encoding: 68 68 39
Width: 1152
GlyphClass: 2
Flags: W
LayerCount: 2
Fore
SplineSet
136 672 m 1,0,-1
 136 768 l 1,1,-1
 712 768 l 1,2,-1
 712 672 l 1,3,-1
 904 672 l 1,4,-1
 904 576 l 1,5,-1
 1000 576 l 1,6,-1
 1000 384 l 1,7,-1
 1096 384 l 1,8,-1
 1096 -192 l 1,9,-1
 1000 -192 l 1,10,-1
 1000 -288 l 1,11,-1
 904 -288 l 1,12,-1
 904 -384 l 1,13,-1
 136 -384 l 1,14,-1
 136 0 l 1,15,-1
 40 0 l 1,16,-1
 40 672 l 1,17,-1
 136 672 l 1,0,-1
616 384 m 1,18,-1
 424 384 l 1,19,-1
 424 96 l 1,20,-1
 520 96 l 1,21,-1
 520 0 l 1,22,-1
 616 0 l 1,23,-1
 616 96 l 1,24,-1
 712 96 l 1,25,-1
 712 288 l 1,26,-1
 616 288 l 1,27,-1
 616 384 l 1,18,-1
EndSplineSet
EndChar

StartChar: E
Encoding: 69 69 40
Width: 1056
GlyphClass: 2
Flags: W
LayerCount: 2
Fore
SplineSet
328 672 m 1,0,-1
 328 768 l 1,1,-1
 904 768 l 1,2,-1
 904 672 l 1,3,-1
 1000 672 l 1,4,-1
 1000 480 l 1,5,-1
 904 480 l 1,6,-1
 904 384 l 1,7,-1
 520 384 l 1,8,-1
 520 288 l 1,9,-1
 808 288 l 1,10,-1
 808 96 l 1,11,-1
 712 96 l 1,12,-1
 712 0 l 1,13,-1
 424 0 l 1,14,-1
 424 -96 l 1,15,-1
 904 -96 l 1,16,-1
 904 -288 l 1,17,-1
 808 -288 l 1,18,-1
 808 -384 l 1,19,-1
 136 -384 l 1,20,-1
 136 -288 l 1,21,-1
 40 -288 l 1,22,-1
 40 192 l 1,23,-1
 136 192 l 1,24,-1
 136 480 l 1,25,-1
 232 480 l 1,26,-1
 232 672 l 1,27,-1
 328 672 l 1,0,-1
EndSplineSet
EndChar

StartChar: F
Encoding: 70 70 41
Width: 960
GlyphClass: 2
Flags: W
LayerCount: 2
Fore
SplineSet
232 672 m 1,0,-1
 232 768 l 1,1,-1
 808 768 l 1,2,-1
 808 672 l 1,3,-1
 904 672 l 1,4,-1
 904 480 l 1,5,-1
 808 480 l 1,6,-1
 808 384 l 1,7,-1
 520 384 l 1,8,-1
 520 288 l 1,9,-1
 808 288 l 1,10,-1
 808 96 l 1,11,-1
 712 96 l 1,12,-1
 712 0 l 1,13,-1
 424 0 l 1,14,-1
 424 -288 l 1,15,-1
 328 -288 l 1,16,-1
 328 -384 l 1,17,-1
 136 -384 l 1,18,-1
 136 -288 l 1,19,-1
 40 -288 l 1,20,-1
 40 384 l 1,21,-1
 136 384 l 1,22,-1
 136 672 l 1,23,-1
 232 672 l 1,0,-1
EndSplineSet
EndChar

StartChar: G
Encoding: 71 71 42
Width: 1152
GlyphClass: 2
Flags: W
LayerCount: 2
Fore
SplineSet
424 672 m 1,0,-1
 424 768 l 1,1,-1
 904 768 l 1,2,-1
 904 672 l 1,3,-1
 1000 672 l 1,4,-1
 1000 480 l 1,5,-1
 904 480 l 1,6,-1
 904 384 l 1,7,-1
 520 384 l 1,8,-1
 520 288 l 1,9,-1
 424 288 l 1,10,-1
 424 0 l 1,11,-1
 520 0 l 1,12,-1
 520 -96 l 1,13,-1
 712 -96 l 1,14,-1
 712 0 l 1,15,-1
 520 0 l 1,16,-1
 520 192 l 1,17,-1
 616 192 l 1,18,-1
 616 288 l 1,19,-1
 1000 288 l 1,20,-1
 1000 192 l 1,21,-1
 1096 192 l 1,22,-1
 1096 -96 l 1,23,-1
 1000 -96 l 1,24,-1
 1000 -288 l 1,25,-1
 808 -288 l 1,26,-1
 808 -384 l 1,27,-1
 328 -384 l 1,28,-1
 328 -288 l 1,29,-1
 136 -288 l 1,30,-1
 136 -96 l 1,31,-1
 40 -96 l 1,32,-1
 40 384 l 1,33,-1
 136 384 l 1,34,-1
 136 576 l 1,35,-1
 232 576 l 1,36,-1
 232 672 l 1,37,-1
 424 672 l 1,0,-1
EndSplineSet
EndChar

StartChar: H
Encoding: 72 72 43
Width: 1152
GlyphClass: 2
Flags: W
LayerCount: 2
Fore
SplineSet
136 672 m 1,0,-1
 136 768 l 1,1,-1
 328 768 l 1,2,-1
 328 672 l 1,3,-1
 424 672 l 1,4,-1
 424 384 l 1,5,-1
 616 384 l 1,6,-1
 616 672 l 1,7,-1
 712 672 l 1,8,-1
 712 768 l 1,9,-1
 904 768 l 1,10,-1
 904 576 l 1,11,-1
 1000 576 l 1,12,-1
 1000 192 l 1,13,-1
 1096 192 l 1,14,-1
 1096 -288 l 1,15,-1
 1000 -288 l 1,16,-1
 1000 -384 l 1,17,-1
 808 -384 l 1,18,-1
 808 -288 l 1,19,-1
 712 -288 l 1,20,-1
 712 0 l 1,21,-1
 424 0 l 1,22,-1
 424 -288 l 1,23,-1
 328 -288 l 1,24,-1
 328 -384 l 1,25,-1
 136 -384 l 1,26,-1
 136 -288 l 1,27,-1
 40 -288 l 1,28,-1
 40 672 l 1,29,-1
 136 672 l 1,0,-1
EndSplineSet
EndChar

StartChar: I
Encoding: 73 73 44
Width: 576
GlyphClass: 2
Flags: W
LayerCount: 2
Fore
SplineSet
136 672 m 1,0,-1
 136 768 l 1,1,-1
 328 768 l 1,2,-1
 328 672 l 1,3,-1
 424 672 l 1,4,-1
 424 96 l 1,5,-1
 520 96 l 1,6,-1
 520 -288 l 1,7,-1
 424 -288 l 1,8,-1
 424 -384 l 1,9,-1
 136 -384 l 1,10,-1
 136 -288 l 1,11,-1
 40 -288 l 1,12,-1
 40 672 l 1,13,-1
 136 672 l 1,0,-1
EndSplineSet
EndChar

StartChar: J
Encoding: 74 74 45
Width: 864
GlyphClass: 2
Flags: W
LayerCount: 2
Fore
SplineSet
328 672 m 1,0,-1
 328 768 l 1,1,-1
 616 768 l 1,2,-1
 616 576 l 1,3,-1
 712 576 l 1,4,-1
 712 384 l 1,5,-1
 808 384 l 1,6,-1
 808 -192 l 1,7,-1
 712 -192 l 1,8,-1
 712 -288 l 1,9,-1
 616 -288 l 1,10,-1
 616 -384 l 1,11,-1
 136 -384 l 1,12,-1
 136 -288 l 1,13,-1
 40 -288 l 1,14,-1
 40 0 l 1,15,-1
 136 0 l 1,16,-1
 136 96 l 1,17,-1
 328 96 l 1,18,-1
 328 0 l 1,19,-1
 424 0 l 1,20,-1
 424 288 l 1,21,-1
 328 288 l 1,22,-1
 328 480 l 1,23,-1
 232 480 l 1,24,-1
 232 672 l 1,25,-1
 328 672 l 1,0,-1
EndSplineSet
EndChar

StartChar: K
Encoding: 75 75 46
Width: 1056
GlyphClass: 2
Flags: W
LayerCount: 2
Fore
SplineSet
136 672 m 1,0,-1
 136 768 l 1,1,-1
 328 768 l 1,2,-1
 328 672 l 1,3,-1
 424 672 l 1,4,-1
 424 384 l 1,5,-1
 520 384 l 1,6,-1
 520 576 l 1,7,-1
 616 576 l 1,8,-1
 616 768 l 1,9,-1
 904 768 l 1,10,-1
 904 672 l 1,11,-1
 1000 672 l 1,12,-1
 1000 480 l 1,13,-1
 904 480 l 1,14,-1
 904 288 l 1,15,-1
 808 288 l 1,16,-1
 808 192 l 1,17,-1
 904 192 l 1,18,-1
 904 0 l 1,19,-1
 1000 0 l 1,20,-1
 1000 -288 l 1,21,-1
 904 -288 l 1,22,-1
 904 -384 l 1,23,-1
 712 -384 l 1,24,-1
 712 -288 l 1,25,-1
 616 -288 l 1,26,-1
 616 -96 l 1,27,-1
 520 -96 l 1,28,-1
 520 -288 l 1,29,-1
 424 -288 l 1,30,-1
 424 -384 l 1,31,-1
 232 -384 l 1,32,-1
 232 -288 l 1,33,-1
 136 -288 l 1,34,-1
 136 192 l 1,35,-1
 40 192 l 1,36,-1
 40 672 l 1,37,-1
 136 672 l 1,0,-1
EndSplineSet
EndChar

StartChar: L
Encoding: 76 76 47
Width: 768
GlyphClass: 2
Flags: W
LayerCount: 2
Fore
SplineSet
328 672 m 1,0,-1
 328 768 l 1,1,-1
 520 768 l 1,2,-1
 520 672 l 1,3,-1
 616 672 l 1,4,-1
 616 384 l 1,5,-1
 520 384 l 1,6,-1
 520 192 l 1,7,-1
 424 192 l 1,8,-1
 424 0 l 1,9,-1
 616 0 l 1,10,-1
 616 -96 l 1,11,-1
 712 -96 l 1,12,-1
 712 -288 l 1,13,-1
 616 -288 l 1,14,-1
 616 -384 l 1,15,-1
 136 -384 l 1,16,-1
 136 -288 l 1,17,-1
 40 -288 l 1,18,-1
 40 192 l 1,19,-1
 136 192 l 1,20,-1
 136 480 l 1,21,-1
 232 480 l 1,22,-1
 232 672 l 1,23,-1
 328 672 l 1,0,-1
EndSplineSet
EndChar

StartChar: M
Encoding: 77 77 48
Width: 1344
GlyphClass: 2
Flags: W
LayerCount: 2
Fore
SplineSet
232 672 m 1,0,-1
 232 768 l 1,1,-1
 520 768 l 1,2,-1
 520 672 l 1,3,-1
 616 672 l 1,4,-1
 616 576 l 1,5,-1
 712 576 l 1,6,-1
 712 672 l 1,7,-1
 808 672 l 1,8,-1
 808 768 l 1,9,-1
 1000 768 l 1,10,-1
 1000 672 l 1,11,-1
 1096 672 l 1,12,-1
 1096 480 l 1,13,-1
 1192 480 l 1,14,-1
 1192 96 l 1,15,-1
 1288 96 l 1,16,-1
 1288 -288 l 1,17,-1
 1192 -288 l 1,18,-1
 1192 -384 l 1,19,-1
 1000 -384 l 1,20,-1
 1000 -288 l 1,21,-1
 904 -288 l 1,22,-1
 904 192 l 1,23,-1
 808 192 l 1,24,-1
 808 96 l 1,25,-1
 616 96 l 1,26,-1
 616 192 l 1,27,-1
 520 192 l 1,28,-1
 520 288 l 1,29,-1
 424 288 l 1,30,-1
 424 0 l 1,31,-1
 520 0 l 1,32,-1
 520 -288 l 1,33,-1
 424 -288 l 1,34,-1
 424 -384 l 1,35,-1
 136 -384 l 1,36,-1
 136 -288 l 1,37,-1
 40 -288 l 1,38,-1
 40 288 l 1,39,-1
 136 288 l 1,40,-1
 136 672 l 1,41,-1
 232 672 l 1,0,-1
EndSplineSet
EndChar

StartChar: N
Encoding: 78 78 49
Width: 1248
GlyphClass: 2
Flags: W
LayerCount: 2
Fore
SplineSet
232 672 m 1,0,-1
 232 768 l 1,1,-1
 520 768 l 1,2,-1
 520 672 l 1,3,-1
 616 672 l 1,4,-1
 616 480 l 1,5,-1
 712 480 l 1,6,-1
 712 192 l 1,7,-1
 808 192 l 1,8,-1
 808 672 l 1,9,-1
 904 672 l 1,10,-1
 904 768 l 1,11,-1
 1096 768 l 1,12,-1
 1096 672 l 1,13,-1
 1192 672 l 1,14,-1
 1192 96 l 1,15,-1
 1096 96 l 1,16,-1
 1096 -288 l 1,17,-1
 1000 -288 l 1,18,-1
 1000 -384 l 1,19,-1
 712 -384 l 1,20,-1
 712 -288 l 1,21,-1
 616 -288 l 1,22,-1
 616 -96 l 1,23,-1
 520 -96 l 1,24,-1
 520 192 l 1,25,-1
 424 192 l 1,26,-1
 424 -288 l 1,27,-1
 328 -288 l 1,28,-1
 328 -384 l 1,29,-1
 136 -384 l 1,30,-1
 136 -288 l 1,31,-1
 40 -288 l 1,32,-1
 40 288 l 1,33,-1
 136 288 l 1,34,-1
 136 672 l 1,35,-1
 232 672 l 1,0,-1
EndSplineSet
EndChar

StartChar: O
Encoding: 79 79 50
Width: 1152
GlyphClass: 2
Flags: W
LayerCount: 2
Fore
SplineSet
424 672 m 1,0,-1
 424 768 l 1,1,-1
 712 768 l 1,2,-1
 712 672 l 1,3,-1
 904 672 l 1,4,-1
 904 576 l 1,5,-1
 1000 576 l 1,6,-1
 1000 384 l 1,7,-1
 1096 384 l 1,8,-1
 1096 -96 l 1,9,-1
 1000 -96 l 1,10,-1
 1000 -288 l 1,11,-1
 808 -288 l 1,12,-1
 808 -384 l 1,13,-1
 328 -384 l 1,14,-1
 328 -288 l 1,15,-1
 136 -288 l 1,16,-1
 136 -96 l 1,17,-1
 40 -96 l 1,18,-1
 40 384 l 1,19,-1
 136 384 l 1,20,-1
 136 576 l 1,21,-1
 232 576 l 1,22,-1
 232 672 l 1,23,-1
 424 672 l 1,0,-1
616 480 m 1,24,-1
 424 480 l 1,25,-1
 424 384 l 1,26,-1
 328 384 l 1,27,-1
 328 192 l 1,28,-1
 424 192 l 1,29,-1
 424 96 l 1,30,-1
 616 96 l 1,31,-1
 616 192 l 1,32,-1
 712 192 l 1,33,-1
 712 384 l 1,34,-1
 616 384 l 1,35,-1
 616 480 l 1,24,-1
EndSplineSet
EndChar

StartChar: P
Encoding: 80 80 51
Width: 1056
GlyphClass: 2
Flags: W
LayerCount: 2
Fore
SplineSet
136 672 m 1,0,-1
 136 768 l 1,1,-1
 616 768 l 1,2,-1
 616 672 l 1,3,-1
 808 672 l 1,4,-1
 808 576 l 1,5,-1
 904 576 l 1,6,-1
 904 384 l 1,7,-1
 1000 384 l 1,8,-1
 1000 96 l 1,9,-1
 904 96 l 1,10,-1
 904 0 l 1,11,-1
 808 0 l 1,12,-1
 808 -96 l 1,13,-1
 520 -96 l 1,14,-1
 520 -288 l 1,15,-1
 424 -288 l 1,16,-1
 424 -384 l 1,17,-1
 232 -384 l 1,18,-1
 232 -288 l 1,19,-1
 136 -288 l 1,20,-1
 136 0 l 1,21,-1
 40 0 l 1,22,-1
 40 672 l 1,23,-1
 136 672 l 1,0,-1
520 480 m 1,24,-1
 328 480 l 1,25,-1
 328 288 l 1,26,-1
 424 288 l 1,27,-1
 424 192 l 1,28,-1
 616 192 l 1,29,-1
 616 384 l 1,30,-1
 520 384 l 1,31,-1
 520 480 l 1,24,-1
EndSplineSet
EndChar

StartChar: Q
Encoding: 81 81 52
Width: 1248
GlyphClass: 2
Flags: W
LayerCount: 2
Fore
SplineSet
520 672 m 1,0,-1
 520 768 l 1,1,-1
 904 768 l 1,2,-1
 904 672 l 1,3,-1
 1000 672 l 1,4,-1
 1000 576 l 1,5,-1
 1096 576 l 1,6,-1
 1096 96 l 1,7,-1
 1000 96 l 1,8,-1
 1000 0 l 1,9,-1
 1096 0 l 1,10,-1
 1096 -96 l 1,11,-1
 1192 -96 l 1,12,-1
 1192 -288 l 1,13,-1
 1096 -288 l 1,14,-1
 1096 -384 l 1,15,-1
 904 -384 l 1,16,-1
 904 -288 l 1,17,-1
 712 -288 l 1,18,-1
 712 -384 l 1,19,-1
 328 -384 l 1,20,-1
 328 -288 l 1,21,-1
 136 -288 l 1,22,-1
 136 -192 l 1,23,-1
 40 -192 l 1,24,-1
 40 288 l 1,25,-1
 136 288 l 1,26,-1
 136 480 l 1,27,-1
 232 480 l 1,28,-1
 232 576 l 1,29,-1
 328 576 l 1,30,-1
 328 672 l 1,31,-1
 520 672 l 1,0,-1
808 480 m 1,32,-1
 616 480 l 1,33,-1
 616 384 l 1,34,-1
 520 384 l 1,35,-1
 520 288 l 1,36,-1
 424 288 l 1,37,-1
 424 0 l 1,38,-1
 520 0 l 1,39,-1
 520 192 l 1,40,-1
 616 192 l 1,41,-1
 616 288 l 1,42,-1
 712 288 l 1,43,-1
 712 192 l 1,44,-1
 808 192 l 1,45,-1
 808 480 l 1,32,-1
EndSplineSet
EndChar

StartChar: R
Encoding: 82 82 53
Width: 1152
GlyphClass: 2
Flags: W
LayerCount: 2
Fore
SplineSet
328 672 m 1,0,-1
 328 768 l 1,1,-1
 904 768 l 1,2,-1
 904 672 l 1,3,-1
 1000 672 l 1,4,-1
 1000 576 l 1,5,-1
 1096 576 l 1,6,-1
 1096 192 l 1,7,-1
 1000 192 l 1,8,-1
 1000 96 l 1,9,-1
 904 96 l 1,10,-1
 904 0 l 1,11,-1
 1000 0 l 1,12,-1
 1000 -96 l 1,13,-1
 1096 -96 l 1,14,-1
 1096 -288 l 1,15,-1
 1000 -288 l 1,16,-1
 1000 -384 l 1,17,-1
 712 -384 l 1,18,-1
 712 -288 l 1,19,-1
 616 -288 l 1,20,-1
 616 -192 l 1,21,-1
 520 -192 l 1,22,-1
 520 -96 l 1,23,-1
 424 -96 l 1,24,-1
 424 -288 l 1,25,-1
 328 -288 l 1,26,-1
 328 -384 l 1,27,-1
 136 -384 l 1,28,-1
 136 -288 l 1,29,-1
 40 -288 l 1,30,-1
 40 192 l 1,31,-1
 136 192 l 1,32,-1
 136 480 l 1,33,-1
 232 480 l 1,34,-1
 232 672 l 1,35,-1
 328 672 l 1,0,-1
712 480 m 1,36,-1
 520 480 l 1,37,-1
 520 384 l 1,38,-1
 424 384 l 1,39,-1
 424 192 l 1,40,-1
 616 192 l 1,41,-1
 616 288 l 1,42,-1
 712 288 l 1,43,-1
 712 480 l 1,36,-1
EndSplineSet
EndChar

StartChar: S
Encoding: 83 83 54
Width: 1056
GlyphClass: 2
Flags: W
LayerCount: 2
Fore
SplineSet
328 672 m 1,0,-1
 328 768 l 1,1,-1
 808 768 l 1,2,-1
 808 672 l 1,3,-1
 904 672 l 1,4,-1
 904 480 l 1,5,-1
 808 480 l 1,6,-1
 808 384 l 1,7,-1
 616 384 l 1,8,-1
 616 480 l 1,9,-1
 520 480 l 1,10,-1
 520 384 l 1,11,-1
 616 384 l 1,12,-1
 616 288 l 1,13,-1
 808 288 l 1,14,-1
 808 192 l 1,15,-1
 904 192 l 1,16,-1
 904 96 l 1,17,-1
 1000 96 l 1,18,-1
 1000 -192 l 1,19,-1
 904 -192 l 1,20,-1
 904 -288 l 1,21,-1
 712 -288 l 1,22,-1
 712 -384 l 1,23,-1
 136 -384 l 1,24,-1
 136 -288 l 1,25,-1
 40 -288 l 1,26,-1
 40 0 l 1,27,-1
 136 0 l 1,28,-1
 136 96 l 1,29,-1
 328 96 l 1,30,-1
 328 0 l 1,31,-1
 520 0 l 1,32,-1
 520 96 l 1,33,-1
 328 96 l 1,34,-1
 328 192 l 1,35,-1
 232 192 l 1,36,-1
 232 288 l 1,37,-1
 136 288 l 1,38,-1
 136 576 l 1,39,-1
 232 576 l 1,40,-1
 232 672 l 1,41,-1
 328 672 l 1,0,-1
EndSplineSet
EndChar

StartChar: T
Encoding: 84 84 55
Width: 1152
GlyphClass: 2
Flags: W
LayerCount: 2
Fore
SplineSet
328 672 m 1,0,-1
 328 768 l 1,1,-1
 1000 768 l 1,2,-1
 1000 672 l 1,3,-1
 1096 672 l 1,4,-1
 1096 480 l 1,5,-1
 1000 480 l 1,6,-1
 1000 384 l 1,7,-1
 808 384 l 1,8,-1
 808 0 l 1,9,-1
 904 0 l 1,10,-1
 904 -288 l 1,11,-1
 808 -288 l 1,12,-1
 808 -384 l 1,13,-1
 520 -384 l 1,14,-1
 520 -192 l 1,15,-1
 424 -192 l 1,16,-1
 424 288 l 1,17,-1
 328 288 l 1,18,-1
 328 192 l 1,19,-1
 136 192 l 1,20,-1
 136 288 l 1,21,-1
 40 288 l 1,22,-1
 40 576 l 1,23,-1
 136 576 l 1,24,-1
 136 672 l 1,25,-1
 328 672 l 1,0,-1
EndSplineSet
EndChar

StartChar: U
Encoding: 85 85 56
Width: 1152
GlyphClass: 2
Flags: W
LayerCount: 2
Fore
SplineSet
136 576 m 1,0,-1
 136 768 l 1,1,-1
 424 768 l 1,2,-1
 424 672 l 1,3,-1
 520 672 l 1,4,-1
 520 384 l 1,5,-1
 424 384 l 1,6,-1
 424 96 l 1,7,-1
 520 96 l 1,8,-1
 520 0 l 1,9,-1
 616 0 l 1,10,-1
 616 96 l 1,11,-1
 712 96 l 1,12,-1
 712 288 l 1,13,-1
 616 288 l 1,14,-1
 616 576 l 1,15,-1
 712 576 l 1,16,-1
 712 672 l 1,17,-1
 904 672 l 1,18,-1
 904 576 l 1,19,-1
 1000 576 l 1,20,-1
 1000 384 l 1,21,-1
 1096 384 l 1,22,-1
 1096 -96 l 1,23,-1
 1000 -96 l 1,24,-1
 1000 -288 l 1,25,-1
 904 -288 l 1,26,-1
 904 -384 l 1,27,-1
 232 -384 l 1,28,-1
 232 -288 l 1,29,-1
 136 -288 l 1,30,-1
 136 -96 l 1,31,-1
 40 -96 l 1,32,-1
 40 576 l 1,33,-1
 136 576 l 1,0,-1
EndSplineSet
EndChar

StartChar: V
Encoding: 86 86 57
Width: 1152
GlyphClass: 2
Flags: W
LayerCount: 2
Fore
SplineSet
136 672 m 1,0,-1
 136 768 l 1,1,-1
 424 768 l 1,2,-1
 424 672 l 1,3,-1
 520 672 l 1,4,-1
 520 96 l 1,5,-1
 616 96 l 1,6,-1
 616 384 l 1,7,-1
 712 384 l 1,8,-1
 712 576 l 1,9,-1
 808 576 l 1,10,-1
 808 672 l 1,11,-1
 1000 672 l 1,12,-1
 1000 576 l 1,13,-1
 1096 576 l 1,14,-1
 1096 192 l 1,15,-1
 1000 192 l 1,16,-1
 1000 0 l 1,17,-1
 904 0 l 1,18,-1
 904 -192 l 1,19,-1
 808 -192 l 1,20,-1
 808 -288 l 1,21,-1
 712 -288 l 1,22,-1
 712 -384 l 1,23,-1
 328 -384 l 1,24,-1
 328 -288 l 1,25,-1
 232 -288 l 1,26,-1
 232 -96 l 1,27,-1
 136 -96 l 1,28,-1
 136 288 l 1,29,-1
 40 288 l 1,30,-1
 40 672 l 1,31,-1
 136 672 l 1,0,-1
EndSplineSet
EndChar

StartChar: W
Encoding: 87 87 58
Width: 1248
GlyphClass: 2
Flags: W
LayerCount: 2
Fore
SplineSet
136 672 m 1,0,-1
 136 768 l 1,1,-1
 328 768 l 1,2,-1
 328 672 l 1,3,-1
 424 672 l 1,4,-1
 424 192 l 1,5,-1
 520 192 l 1,6,-1
 520 288 l 1,7,-1
 712 288 l 1,8,-1
 712 192 l 1,9,-1
 808 192 l 1,10,-1
 808 672 l 1,11,-1
 904 672 l 1,12,-1
 904 768 l 1,13,-1
 1096 768 l 1,14,-1
 1096 672 l 1,15,-1
 1192 672 l 1,16,-1
 1192 96 l 1,17,-1
 1096 96 l 1,18,-1
 1096 -192 l 1,19,-1
 1000 -192 l 1,20,-1
 1000 -288 l 1,21,-1
 904 -288 l 1,22,-1
 904 -384 l 1,23,-1
 712 -384 l 1,24,-1
 712 -288 l 1,25,-1
 520 -288 l 1,26,-1
 520 -384 l 1,27,-1
 328 -384 l 1,28,-1
 328 -288 l 1,29,-1
 232 -288 l 1,30,-1
 232 -96 l 1,31,-1
 136 -96 l 1,32,-1
 136 192 l 1,33,-1
 40 192 l 1,34,-1
 40 672 l 1,35,-1
 136 672 l 1,0,-1
EndSplineSet
EndChar

StartChar: X
Encoding: 88 88 59
Width: 1248
GlyphClass: 2
Flags: W
LayerCount: 2
Fore
SplineSet
232 672 m 1,0,-1
 232 768 l 1,1,-1
 424 768 l 1,2,-1
 424 672 l 1,3,-1
 520 672 l 1,4,-1
 520 576 l 1,5,-1
 712 576 l 1,6,-1
 712 672 l 1,7,-1
 808 672 l 1,8,-1
 808 768 l 1,9,-1
 1000 768 l 1,10,-1
 1000 672 l 1,11,-1
 1096 672 l 1,12,-1
 1096 480 l 1,13,-1
 1000 480 l 1,14,-1
 1000 384 l 1,15,-1
 904 384 l 1,16,-1
 904 288 l 1,17,-1
 1000 288 l 1,18,-1
 1000 192 l 1,19,-1
 1096 192 l 1,20,-1
 1096 0 l 1,21,-1
 1192 0 l 1,22,-1
 1192 -288 l 1,23,-1
 1096 -288 l 1,24,-1
 1096 -384 l 1,25,-1
 904 -384 l 1,26,-1
 904 -288 l 1,27,-1
 808 -288 l 1,28,-1
 808 -96 l 1,29,-1
 712 -96 l 1,30,-1
 712 0 l 1,31,-1
 520 0 l 1,32,-1
 520 -96 l 1,33,-1
 424 -96 l 1,34,-1
 424 -288 l 1,35,-1
 328 -288 l 1,36,-1
 328 -384 l 1,37,-1
 136 -384 l 1,38,-1
 136 -288 l 1,39,-1
 40 -288 l 1,40,-1
 40 0 l 1,41,-1
 136 0 l 1,42,-1
 136 192 l 1,43,-1
 232 192 l 1,44,-1
 232 288 l 1,45,-1
 328 288 l 1,46,-1
 328 384 l 1,47,-1
 232 384 l 1,48,-1
 232 480 l 1,49,-1
 136 480 l 1,50,-1
 136 672 l 1,51,-1
 232 672 l 1,0,-1
EndSplineSet
EndChar

StartChar: Y
Encoding: 89 89 60
Width: 1056
GlyphClass: 2
Flags: W
LayerCount: 2
Fore
SplineSet
712 672 m 1,0,-1
 712 768 l 1,1,-1
 904 768 l 1,2,-1
 904 672 l 1,3,-1
 1000 672 l 1,4,-1
 1000 288 l 1,5,-1
 904 288 l 1,6,-1
 904 96 l 1,7,-1
 808 96 l 1,8,-1
 808 -96 l 1,9,-1
 712 -96 l 1,10,-1
 712 -288 l 1,11,-1
 616 -288 l 1,12,-1
 616 -384 l 1,13,-1
 424 -384 l 1,14,-1
 424 -288 l 1,15,-1
 328 -288 l 1,16,-1
 328 0 l 1,17,-1
 424 0 l 1,18,-1
 424 96 l 1,19,-1
 328 96 l 1,20,-1
 328 192 l 1,21,-1
 232 192 l 1,22,-1
 232 288 l 1,23,-1
 136 288 l 1,24,-1
 136 384 l 1,25,-1
 40 384 l 1,26,-1
 40 576 l 1,27,-1
 136 576 l 1,28,-1
 136 672 l 1,29,-1
 424 672 l 1,30,-1
 424 576 l 1,31,-1
 520 576 l 1,32,-1
 520 480 l 1,33,-1
 616 480 l 1,34,-1
 616 672 l 1,35,-1
 712 672 l 1,0,-1
EndSplineSet
EndChar

StartChar: Z
Encoding: 90 90 61
Width: 1056
GlyphClass: 2
Flags: W
LayerCount: 2
Fore
SplineSet
232 672 m 1,0,-1
 232 768 l 1,1,-1
 712 768 l 1,2,-1
 712 672 l 1,3,-1
 904 672 l 1,4,-1
 904 384 l 1,5,-1
 808 384 l 1,6,-1
 808 192 l 1,7,-1
 712 192 l 1,8,-1
 712 96 l 1,9,-1
 616 96 l 1,10,-1
 616 0 l 1,11,-1
 904 0 l 1,12,-1
 904 -96 l 1,13,-1
 1000 -96 l 1,14,-1
 1000 -288 l 1,15,-1
 904 -288 l 1,16,-1
 904 -384 l 1,17,-1
 136 -384 l 1,18,-1
 136 -288 l 1,19,-1
 40 -288 l 1,20,-1
 40 -96 l 1,21,-1
 136 -96 l 1,22,-1
 136 96 l 1,23,-1
 232 96 l 1,24,-1
 232 192 l 1,25,-1
 328 192 l 1,26,-1
 328 288 l 1,27,-1
 424 288 l 1,28,-1
 424 384 l 1,29,-1
 232 384 l 1,30,-1
 232 480 l 1,31,-1
 136 480 l 1,32,-1
 136 672 l 1,33,-1
 232 672 l 1,0,-1
EndSplineSet
EndChar

StartChar: backslash
Encoding: 92 92 62
Width: 672
GlyphClass: 2
Flags: W
LayerCount: 2
Fore
SplineSet
136 672 m 1,0,-1
 136 768 l 1,1,-1
 328 768 l 1,2,-1
 328 576 l 1,3,-1
 424 576 l 1,4,-1
 424 192 l 1,5,-1
 520 192 l 1,6,-1
 520 -96 l 1,7,-1
 616 -96 l 1,8,-1
 616 -288 l 1,9,-1
 520 -288 l 1,10,-1
 520 -384 l 1,11,-1
 328 -384 l 1,12,-1
 328 -192 l 1,13,-1
 232 -192 l 1,14,-1
 232 192 l 1,15,-1
 136 192 l 1,16,-1
 136 480 l 1,17,-1
 40 480 l 1,18,-1
 40 672 l 1,19,-1
 136 672 l 1,0,-1
EndSplineSet
EndChar

StartChar: underscore
Encoding: 95 95 63
Width: 1056
GlyphClass: 2
Flags: W
LayerCount: 2
Fore
SplineSet
136 -96 m 1,0,-1
 136 0 l 1,1,-1
 904 0 l 1,2,-1
 904 -96 l 1,3,-1
 1000 -96 l 1,4,-1
 1000 -288 l 1,5,-1
 904 -288 l 1,6,-1
 904 -384 l 1,7,-1
 136 -384 l 1,8,-1
 136 -288 l 1,9,-1
 40 -288 l 1,10,-1
 40 -96 l 1,11,-1
 136 -96 l 1,0,-1
EndSplineSet
EndChar

StartChar: a
Encoding: 97 97 64
Width: 1152
GlyphClass: 2
Flags: W
LayerCount: 2
Fore
SplineSet
520 672 m 1,0,-1
 520 768 l 1,1,-1
 904 768 l 1,2,-1
 904 672 l 1,3,-1
 1000 672 l 1,4,-1
 1000 480 l 1,5,-1
 1096 480 l 1,6,-1
 1096 -288 l 1,7,-1
 1000 -288 l 1,8,-1
 1000 -384 l 1,9,-1
 808 -384 l 1,10,-1
 808 -288 l 1,11,-1
 712 -288 l 1,12,-1
 712 -192 l 1,13,-1
 616 -192 l 1,14,-1
 616 -96 l 1,15,-1
 424 -96 l 1,16,-1
 424 -192 l 1,17,-1
 328 -192 l 1,18,-1
 328 -288 l 1,19,-1
 136 -288 l 1,20,-1
 136 -192 l 1,21,-1
 40 -192 l 1,22,-1
 40 96 l 1,23,-1
 136 96 l 1,24,-1
 136 288 l 1,25,-1
 232 288 l 1,26,-1
 232 480 l 1,27,-1
 328 480 l 1,28,-1
 328 576 l 1,29,-1
 424 576 l 1,30,-1
 424 672 l 1,31,-1
 520 672 l 1,0,-1
808 384 m 1,32,-1
 616 384 l 1,33,-1
 616 288 l 1,34,-1
 520 288 l 1,35,-1
 520 192 l 1,36,-1
 712 192 l 1,37,-1
 712 96 l 1,38,-1
 808 96 l 1,39,-1
 808 384 l 1,32,-1
EndSplineSet
EndChar

StartChar: b
Encoding: 98 98 65
Width: 1152
GlyphClass: 2
Flags: W
LayerCount: 2
Fore
SplineSet
328 672 m 1,0,-1
 328 768 l 1,1,-1
 712 768 l 1,2,-1
 712 672 l 1,3,-1
 904 672 l 1,4,-1
 904 576 l 1,5,-1
 1000 576 l 1,6,-1
 1000 288 l 1,7,-1
 904 288 l 1,8,-1
 904 192 l 1,9,-1
 1000 192 l 1,10,-1
 1000 96 l 1,11,-1
 1096 96 l 1,12,-1
 1096 -288 l 1,13,-1
 904 -288 l 1,14,-1
 904 -384 l 1,15,-1
 136 -384 l 1,16,-1
 136 -288 l 1,17,-1
 40 -288 l 1,18,-1
 40 192 l 1,19,-1
 136 192 l 1,20,-1
 136 480 l 1,21,-1
 232 480 l 1,22,-1
 232 672 l 1,23,-1
 328 672 l 1,0,-1
616 480 m 1,24,-1
 520 480 l 1,25,-1
 520 384 l 1,26,-1
 424 384 l 1,27,-1
 424 288 l 1,28,-1
 616 288 l 1,29,-1
 616 480 l 1,24,-1
616 96 m 1,30,-1
 424 96 l 1,31,-1
 424 -96 l 1,32,-1
 616 -96 l 1,33,-1
 616 96 l 1,30,-1
EndSplineSet
EndChar

StartChar: c
Encoding: 99 99 66
Width: 1056
GlyphClass: 2
Flags: W
LayerCount: 2
Fore
SplineSet
424 672 m 1,0,-1
 424 768 l 1,1,-1
 808 768 l 1,2,-1
 808 672 l 1,3,-1
 904 672 l 1,4,-1
 904 480 l 1,5,-1
 808 480 l 1,6,-1
 808 384 l 1,7,-1
 520 384 l 1,8,-1
 520 288 l 1,9,-1
 424 288 l 1,10,-1
 424 96 l 1,11,-1
 520 96 l 1,12,-1
 520 0 l 1,13,-1
 712 0 l 1,14,-1
 712 96 l 1,15,-1
 904 96 l 1,16,-1
 904 0 l 1,17,-1
 1000 0 l 1,18,-1
 1000 -288 l 1,19,-1
 808 -288 l 1,20,-1
 808 -384 l 1,21,-1
 424 -384 l 1,22,-1
 424 -288 l 1,23,-1
 232 -288 l 1,24,-1
 232 -192 l 1,25,-1
 136 -192 l 1,26,-1
 136 0 l 1,27,-1
 40 0 l 1,28,-1
 40 384 l 1,29,-1
 136 384 l 1,30,-1
 136 576 l 1,31,-1
 232 576 l 1,32,-1
 232 672 l 1,33,-1
 424 672 l 1,0,-1
EndSplineSet
EndChar

StartChar: d
Encoding: 100 100 67
Width: 1152
GlyphClass: 2
Flags: W
LayerCount: 2
Fore
SplineSet
136 672 m 1,0,-1
 136 768 l 1,1,-1
 712 768 l 1,2,-1
 712 672 l 1,3,-1
 904 672 l 1,4,-1
 904 576 l 1,5,-1
 1000 576 l 1,6,-1
 1000 384 l 1,7,-1
 1096 384 l 1,8,-1
 1096 -192 l 1,9,-1
 1000 -192 l 1,10,-1
 1000 -288 l 1,11,-1
 904 -288 l 1,12,-1
 904 -384 l 1,13,-1
 136 -384 l 1,14,-1
 136 0 l 1,15,-1
 40 0 l 1,16,-1
 40 672 l 1,17,-1
 136 672 l 1,0,-1
616 384 m 1,18,-1
 424 384 l 1,19,-1
 424 96 l 1,20,-1
 520 96 l 1,21,-1
 520 0 l 1,22,-1
 616 0 l 1,23,-1
 616 96 l 1,24,-1
 712 96 l 1,25,-1
 712 288 l 1,26,-1
 616 288 l 1,27,-1
 616 384 l 1,18,-1
EndSplineSet
EndChar

StartChar: e
Encoding: 101 101 68
Width: 1056
GlyphClass: 2
Flags: W
LayerCount: 2
Fore
SplineSet
328 672 m 1,0,-1
 328 768 l 1,1,-1
 904 768 l 1,2,-1
 904 672 l 1,3,-1
 1000 672 l 1,4,-1
 1000 480 l 1,5,-1
 904 480 l 1,6,-1
 904 384 l 1,7,-1
 520 384 l 1,8,-1
 520 288 l 1,9,-1
 808 288 l 1,10,-1
 808 96 l 1,11,-1
 712 96 l 1,12,-1
 712 0 l 1,13,-1
 424 0 l 1,14,-1
 424 -96 l 1,15,-1
 904 -96 l 1,16,-1
 904 -288 l 1,17,-1
 808 -288 l 1,18,-1
 808 -384 l 1,19,-1
 136 -384 l 1,20,-1
 136 -288 l 1,21,-1
 40 -288 l 1,22,-1
 40 192 l 1,23,-1
 136 192 l 1,24,-1
 136 480 l 1,25,-1
 232 480 l 1,26,-1
 232 672 l 1,27,-1
 328 672 l 1,0,-1
EndSplineSet
EndChar

StartChar: f
Encoding: 102 102 69
Width: 960
GlyphClass: 2
Flags: W
LayerCount: 2
Fore
SplineSet
232 672 m 1,0,-1
 232 768 l 1,1,-1
 808 768 l 1,2,-1
 808 672 l 1,3,-1
 904 672 l 1,4,-1
 904 480 l 1,5,-1
 808 480 l 1,6,-1
 808 384 l 1,7,-1
 520 384 l 1,8,-1
 520 288 l 1,9,-1
 808 288 l 1,10,-1
 808 96 l 1,11,-1
 712 96 l 1,12,-1
 712 0 l 1,13,-1
 424 0 l 1,14,-1
 424 -288 l 1,15,-1
 328 -288 l 1,16,-1
 328 -384 l 1,17,-1
 136 -384 l 1,18,-1
 136 -288 l 1,19,-1
 40 -288 l 1,20,-1
 40 384 l 1,21,-1
 136 384 l 1,22,-1
 136 672 l 1,23,-1
 232 672 l 1,0,-1
EndSplineSet
EndChar

StartChar: g
Encoding: 103 103 70
Width: 1152
GlyphClass: 2
Flags: W
LayerCount: 2
Fore
SplineSet
424 672 m 1,0,-1
 424 768 l 1,1,-1
 904 768 l 1,2,-1
 904 672 l 1,3,-1
 1000 672 l 1,4,-1
 1000 480 l 1,5,-1
 904 480 l 1,6,-1
 904 384 l 1,7,-1
 520 384 l 1,8,-1
 520 288 l 1,9,-1
 424 288 l 1,10,-1
 424 0 l 1,11,-1
 520 0 l 1,12,-1
 520 -96 l 1,13,-1
 712 -96 l 1,14,-1
 712 0 l 1,15,-1
 520 0 l 1,16,-1
 520 192 l 1,17,-1
 616 192 l 1,18,-1
 616 288 l 1,19,-1
 1000 288 l 1,20,-1
 1000 192 l 1,21,-1
 1096 192 l 1,22,-1
 1096 -96 l 1,23,-1
 1000 -96 l 1,24,-1
 1000 -288 l 1,25,-1
 808 -288 l 1,26,-1
 808 -384 l 1,27,-1
 328 -384 l 1,28,-1
 328 -288 l 1,29,-1
 136 -288 l 1,30,-1
 136 -96 l 1,31,-1
 40 -96 l 1,32,-1
 40 384 l 1,33,-1
 136 384 l 1,34,-1
 136 576 l 1,35,-1
 232 576 l 1,36,-1
 232 672 l 1,37,-1
 424 672 l 1,0,-1
EndSplineSet
EndChar

StartChar: h
Encoding: 104 104 71
Width: 1152
GlyphClass: 2
Flags: W
LayerCount: 2
Fore
SplineSet
136 672 m 1,0,-1
 136 768 l 1,1,-1
 328 768 l 1,2,-1
 328 672 l 1,3,-1
 424 672 l 1,4,-1
 424 384 l 1,5,-1
 616 384 l 1,6,-1
 616 672 l 1,7,-1
 712 672 l 1,8,-1
 712 768 l 1,9,-1
 904 768 l 1,10,-1
 904 576 l 1,11,-1
 1000 576 l 1,12,-1
 1000 192 l 1,13,-1
 1096 192 l 1,14,-1
 1096 -288 l 1,15,-1
 1000 -288 l 1,16,-1
 1000 -384 l 1,17,-1
 808 -384 l 1,18,-1
 808 -288 l 1,19,-1
 712 -288 l 1,20,-1
 712 0 l 1,21,-1
 424 0 l 1,22,-1
 424 -288 l 1,23,-1
 328 -288 l 1,24,-1
 328 -384 l 1,25,-1
 136 -384 l 1,26,-1
 136 -288 l 1,27,-1
 40 -288 l 1,28,-1
 40 672 l 1,29,-1
 136 672 l 1,0,-1
EndSplineSet
EndChar

StartChar: i
Encoding: 105 105 72
Width: 576
GlyphClass: 2
Flags: W
LayerCount: 2
Fore
SplineSet
136 672 m 1,0,-1
 136 768 l 1,1,-1
 328 768 l 1,2,-1
 328 672 l 1,3,-1
 424 672 l 1,4,-1
 424 96 l 1,5,-1
 520 96 l 1,6,-1
 520 -288 l 1,7,-1
 424 -288 l 1,8,-1
 424 -384 l 1,9,-1
 136 -384 l 1,10,-1
 136 -288 l 1,11,-1
 40 -288 l 1,12,-1
 40 672 l 1,13,-1
 136 672 l 1,0,-1
EndSplineSet
EndChar

StartChar: j
Encoding: 106 106 73
Width: 864
GlyphClass: 2
Flags: W
LayerCount: 2
Fore
SplineSet
328 672 m 1,0,-1
 328 768 l 1,1,-1
 616 768 l 1,2,-1
 616 576 l 1,3,-1
 712 576 l 1,4,-1
 712 384 l 1,5,-1
 808 384 l 1,6,-1
 808 -192 l 1,7,-1
 712 -192 l 1,8,-1
 712 -288 l 1,9,-1
 616 -288 l 1,10,-1
 616 -384 l 1,11,-1
 136 -384 l 1,12,-1
 136 -288 l 1,13,-1
 40 -288 l 1,14,-1
 40 0 l 1,15,-1
 136 0 l 1,16,-1
 136 96 l 1,17,-1
 328 96 l 1,18,-1
 328 0 l 1,19,-1
 424 0 l 1,20,-1
 424 288 l 1,21,-1
 328 288 l 1,22,-1
 328 480 l 1,23,-1
 232 480 l 1,24,-1
 232 672 l 1,25,-1
 328 672 l 1,0,-1
EndSplineSet
EndChar

StartChar: k
Encoding: 107 107 74
Width: 1056
GlyphClass: 2
Flags: W
LayerCount: 2
Fore
SplineSet
136 672 m 1,0,-1
 136 768 l 1,1,-1
 328 768 l 1,2,-1
 328 672 l 1,3,-1
 424 672 l 1,4,-1
 424 384 l 1,5,-1
 520 384 l 1,6,-1
 520 576 l 1,7,-1
 616 576 l 1,8,-1
 616 768 l 1,9,-1
 904 768 l 1,10,-1
 904 672 l 1,11,-1
 1000 672 l 1,12,-1
 1000 480 l 1,13,-1
 904 480 l 1,14,-1
 904 288 l 1,15,-1
 808 288 l 1,16,-1
 808 192 l 1,17,-1
 904 192 l 1,18,-1
 904 0 l 1,19,-1
 1000 0 l 1,20,-1
 1000 -288 l 1,21,-1
 904 -288 l 1,22,-1
 904 -384 l 1,23,-1
 712 -384 l 1,24,-1
 712 -288 l 1,25,-1
 616 -288 l 1,26,-1
 616 -96 l 1,27,-1
 520 -96 l 1,28,-1
 520 -288 l 1,29,-1
 424 -288 l 1,30,-1
 424 -384 l 1,31,-1
 232 -384 l 1,32,-1
 232 -288 l 1,33,-1
 136 -288 l 1,34,-1
 136 192 l 1,35,-1
 40 192 l 1,36,-1
 40 672 l 1,37,-1
 136 672 l 1,0,-1
EndSplineSet
EndChar

StartChar: l
Encoding: 108 108 75
Width: 768
GlyphClass: 2
Flags: W
LayerCount: 2
Fore
SplineSet
328 672 m 1,0,-1
 328 768 l 1,1,-1
 520 768 l 1,2,-1
 520 672 l 1,3,-1
 616 672 l 1,4,-1
 616 384 l 1,5,-1
 520 384 l 1,6,-1
 520 192 l 1,7,-1
 424 192 l 1,8,-1
 424 0 l 1,9,-1
 616 0 l 1,10,-1
 616 -96 l 1,11,-1
 712 -96 l 1,12,-1
 712 -288 l 1,13,-1
 616 -288 l 1,14,-1
 616 -384 l 1,15,-1
 136 -384 l 1,16,-1
 136 -288 l 1,17,-1
 40 -288 l 1,18,-1
 40 192 l 1,19,-1
 136 192 l 1,20,-1
 136 480 l 1,21,-1
 232 480 l 1,22,-1
 232 672 l 1,23,-1
 328 672 l 1,0,-1
EndSplineSet
EndChar

StartChar: m
Encoding: 109 109 76
Width: 1344
GlyphClass: 2
Flags: W
LayerCount: 2
Fore
SplineSet
232 672 m 1,0,-1
 232 768 l 1,1,-1
 520 768 l 1,2,-1
 520 672 l 1,3,-1
 616 672 l 1,4,-1
 616 576 l 1,5,-1
 712 576 l 1,6,-1
 712 672 l 1,7,-1
 808 672 l 1,8,-1
 808 768 l 1,9,-1
 1000 768 l 1,10,-1
 1000 672 l 1,11,-1
 1096 672 l 1,12,-1
 1096 480 l 1,13,-1
 1192 480 l 1,14,-1
 1192 96 l 1,15,-1
 1288 96 l 1,16,-1
 1288 -288 l 1,17,-1
 1192 -288 l 1,18,-1
 1192 -384 l 1,19,-1
 1000 -384 l 1,20,-1
 1000 -288 l 1,21,-1
 904 -288 l 1,22,-1
 904 192 l 1,23,-1
 808 192 l 1,24,-1
 808 96 l 1,25,-1
 616 96 l 1,26,-1
 616 192 l 1,27,-1
 520 192 l 1,28,-1
 520 288 l 1,29,-1
 424 288 l 1,30,-1
 424 0 l 1,31,-1
 520 0 l 1,32,-1
 520 -288 l 1,33,-1
 424 -288 l 1,34,-1
 424 -384 l 1,35,-1
 136 -384 l 1,36,-1
 136 -288 l 1,37,-1
 40 -288 l 1,38,-1
 40 288 l 1,39,-1
 136 288 l 1,40,-1
 136 672 l 1,41,-1
 232 672 l 1,0,-1
EndSplineSet
EndChar

StartChar: n
Encoding: 110 110 77
Width: 1248
GlyphClass: 2
Flags: W
LayerCount: 2
Fore
SplineSet
232 672 m 1,0,-1
 232 768 l 1,1,-1
 520 768 l 1,2,-1
 520 672 l 1,3,-1
 616 672 l 1,4,-1
 616 480 l 1,5,-1
 712 480 l 1,6,-1
 712 192 l 1,7,-1
 808 192 l 1,8,-1
 808 672 l 1,9,-1
 904 672 l 1,10,-1
 904 768 l 1,11,-1
 1096 768 l 1,12,-1
 1096 672 l 1,13,-1
 1192 672 l 1,14,-1
 1192 96 l 1,15,-1
 1096 96 l 1,16,-1
 1096 -288 l 1,17,-1
 1000 -288 l 1,18,-1
 1000 -384 l 1,19,-1
 712 -384 l 1,20,-1
 712 -288 l 1,21,-1
 616 -288 l 1,22,-1
 616 -96 l 1,23,-1
 520 -96 l 1,24,-1
 520 192 l 1,25,-1
 424 192 l 1,26,-1
 424 -288 l 1,27,-1
 328 -288 l 1,28,-1
 328 -384 l 1,29,-1
 136 -384 l 1,30,-1
 136 -288 l 1,31,-1
 40 -288 l 1,32,-1
 40 288 l 1,33,-1
 136 288 l 1,34,-1
 136 672 l 1,35,-1
 232 672 l 1,0,-1
EndSplineSet
EndChar

StartChar: o
Encoding: 111 111 78
Width: 1152
GlyphClass: 2
Flags: W
LayerCount: 2
Fore
SplineSet
424 672 m 1,0,-1
 424 768 l 1,1,-1
 712 768 l 1,2,-1
 712 672 l 1,3,-1
 904 672 l 1,4,-1
 904 576 l 1,5,-1
 1000 576 l 1,6,-1
 1000 384 l 1,7,-1
 1096 384 l 1,8,-1
 1096 -96 l 1,9,-1
 1000 -96 l 1,10,-1
 1000 -288 l 1,11,-1
 808 -288 l 1,12,-1
 808 -384 l 1,13,-1
 328 -384 l 1,14,-1
 328 -288 l 1,15,-1
 136 -288 l 1,16,-1
 136 -96 l 1,17,-1
 40 -96 l 1,18,-1
 40 384 l 1,19,-1
 136 384 l 1,20,-1
 136 576 l 1,21,-1
 232 576 l 1,22,-1
 232 672 l 1,23,-1
 424 672 l 1,0,-1
616 480 m 1,24,-1
 424 480 l 1,25,-1
 424 384 l 1,26,-1
 328 384 l 1,27,-1
 328 192 l 1,28,-1
 424 192 l 1,29,-1
 424 96 l 1,30,-1
 616 96 l 1,31,-1
 616 192 l 1,32,-1
 712 192 l 1,33,-1
 712 384 l 1,34,-1
 616 384 l 1,35,-1
 616 480 l 1,24,-1
EndSplineSet
EndChar

StartChar: p
Encoding: 112 112 79
Width: 1056
GlyphClass: 2
Flags: W
LayerCount: 2
Fore
SplineSet
136 672 m 1,0,-1
 136 768 l 1,1,-1
 616 768 l 1,2,-1
 616 672 l 1,3,-1
 808 672 l 1,4,-1
 808 576 l 1,5,-1
 904 576 l 1,6,-1
 904 384 l 1,7,-1
 1000 384 l 1,8,-1
 1000 96 l 1,9,-1
 904 96 l 1,10,-1
 904 0 l 1,11,-1
 808 0 l 1,12,-1
 808 -96 l 1,13,-1
 520 -96 l 1,14,-1
 520 -288 l 1,15,-1
 424 -288 l 1,16,-1
 424 -384 l 1,17,-1
 232 -384 l 1,18,-1
 232 -288 l 1,19,-1
 136 -288 l 1,20,-1
 136 0 l 1,21,-1
 40 0 l 1,22,-1
 40 672 l 1,23,-1
 136 672 l 1,0,-1
520 480 m 1,24,-1
 328 480 l 1,25,-1
 328 288 l 1,26,-1
 424 288 l 1,27,-1
 424 192 l 1,28,-1
 616 192 l 1,29,-1
 616 384 l 1,30,-1
 520 384 l 1,31,-1
 520 480 l 1,24,-1
EndSplineSet
EndChar

StartChar: q
Encoding: 113 113 80
Width: 1248
GlyphClass: 2
Flags: W
LayerCount: 2
Fore
SplineSet
520 672 m 1,0,-1
 520 768 l 1,1,-1
 904 768 l 1,2,-1
 904 672 l 1,3,-1
 1000 672 l 1,4,-1
 1000 576 l 1,5,-1
 1096 576 l 1,6,-1
 1096 96 l 1,7,-1
 1000 96 l 1,8,-1
 1000 0 l 1,9,-1
 1096 0 l 1,10,-1
 1096 -96 l 1,11,-1
 1192 -96 l 1,12,-1
 1192 -288 l 1,13,-1
 1096 -288 l 1,14,-1
 1096 -384 l 1,15,-1
 904 -384 l 1,16,-1
 904 -288 l 1,17,-1
 712 -288 l 1,18,-1
 712 -384 l 1,19,-1
 328 -384 l 1,20,-1
 328 -288 l 1,21,-1
 136 -288 l 1,22,-1
 136 -192 l 1,23,-1
 40 -192 l 1,24,-1
 40 288 l 1,25,-1
 136 288 l 1,26,-1
 136 480 l 1,27,-1
 232 480 l 1,28,-1
 232 576 l 1,29,-1
 328 576 l 1,30,-1
 328 672 l 1,31,-1
 520 672 l 1,0,-1
808 480 m 1,32,-1
 616 480 l 1,33,-1
 616 384 l 1,34,-1
 520 384 l 1,35,-1
 520 288 l 1,36,-1
 424 288 l 1,37,-1
 424 0 l 1,38,-1
 520 0 l 1,39,-1
 520 192 l 1,40,-1
 616 192 l 1,41,-1
 616 288 l 1,42,-1
 712 288 l 1,43,-1
 712 192 l 1,44,-1
 808 192 l 1,45,-1
 808 480 l 1,32,-1
EndSplineSet
EndChar

StartChar: r
Encoding: 114 114 81
Width: 1152
GlyphClass: 2
Flags: W
LayerCount: 2
Fore
SplineSet
328 672 m 1,0,-1
 328 768 l 1,1,-1
 904 768 l 1,2,-1
 904 672 l 1,3,-1
 1000 672 l 1,4,-1
 1000 576 l 1,5,-1
 1096 576 l 1,6,-1
 1096 192 l 1,7,-1
 1000 192 l 1,8,-1
 1000 96 l 1,9,-1
 904 96 l 1,10,-1
 904 0 l 1,11,-1
 1000 0 l 1,12,-1
 1000 -96 l 1,13,-1
 1096 -96 l 1,14,-1
 1096 -288 l 1,15,-1
 1000 -288 l 1,16,-1
 1000 -384 l 1,17,-1
 712 -384 l 1,18,-1
 712 -288 l 1,19,-1
 616 -288 l 1,20,-1
 616 -192 l 1,21,-1
 520 -192 l 1,22,-1
 520 -96 l 1,23,-1
 424 -96 l 1,24,-1
 424 -288 l 1,25,-1
 328 -288 l 1,26,-1
 328 -384 l 1,27,-1
 136 -384 l 1,28,-1
 136 -288 l 1,29,-1
 40 -288 l 1,30,-1
 40 192 l 1,31,-1
 136 192 l 1,32,-1
 136 480 l 1,33,-1
 232 480 l 1,34,-1
 232 672 l 1,35,-1
 328 672 l 1,0,-1
712 480 m 1,36,-1
 520 480 l 1,37,-1
 520 384 l 1,38,-1
 424 384 l 1,39,-1
 424 192 l 1,40,-1
 616 192 l 1,41,-1
 616 288 l 1,42,-1
 712 288 l 1,43,-1
 712 480 l 1,36,-1
EndSplineSet
EndChar

StartChar: s
Encoding: 115 115 82
Width: 1056
GlyphClass: 2
Flags: W
LayerCount: 2
Fore
SplineSet
328 672 m 1,0,-1
 328 768 l 1,1,-1
 808 768 l 1,2,-1
 808 672 l 1,3,-1
 904 672 l 1,4,-1
 904 480 l 1,5,-1
 808 480 l 1,6,-1
 808 384 l 1,7,-1
 616 384 l 1,8,-1
 616 480 l 1,9,-1
 520 480 l 1,10,-1
 520 384 l 1,11,-1
 616 384 l 1,12,-1
 616 288 l 1,13,-1
 808 288 l 1,14,-1
 808 192 l 1,15,-1
 904 192 l 1,16,-1
 904 96 l 1,17,-1
 1000 96 l 1,18,-1
 1000 -192 l 1,19,-1
 904 -192 l 1,20,-1
 904 -288 l 1,21,-1
 712 -288 l 1,22,-1
 712 -384 l 1,23,-1
 136 -384 l 1,24,-1
 136 -288 l 1,25,-1
 40 -288 l 1,26,-1
 40 0 l 1,27,-1
 136 0 l 1,28,-1
 136 96 l 1,29,-1
 328 96 l 1,30,-1
 328 0 l 1,31,-1
 520 0 l 1,32,-1
 520 96 l 1,33,-1
 328 96 l 1,34,-1
 328 192 l 1,35,-1
 232 192 l 1,36,-1
 232 288 l 1,37,-1
 136 288 l 1,38,-1
 136 576 l 1,39,-1
 232 576 l 1,40,-1
 232 672 l 1,41,-1
 328 672 l 1,0,-1
EndSplineSet
EndChar

StartChar: t
Encoding: 116 116 83
Width: 1152
GlyphClass: 2
Flags: W
LayerCount: 2
Fore
SplineSet
328 672 m 1,0,-1
 328 768 l 1,1,-1
 1000 768 l 1,2,-1
 1000 672 l 1,3,-1
 1096 672 l 1,4,-1
 1096 480 l 1,5,-1
 1000 480 l 1,6,-1
 1000 384 l 1,7,-1
 808 384 l 1,8,-1
 808 0 l 1,9,-1
 904 0 l 1,10,-1
 904 -288 l 1,11,-1
 808 -288 l 1,12,-1
 808 -384 l 1,13,-1
 520 -384 l 1,14,-1
 520 -192 l 1,15,-1
 424 -192 l 1,16,-1
 424 288 l 1,17,-1
 328 288 l 1,18,-1
 328 192 l 1,19,-1
 136 192 l 1,20,-1
 136 288 l 1,21,-1
 40 288 l 1,22,-1
 40 576 l 1,23,-1
 136 576 l 1,24,-1
 136 672 l 1,25,-1
 328 672 l 1,0,-1
EndSplineSet
EndChar

StartChar: u
Encoding: 117 117 84
Width: 1152
GlyphClass: 2
Flags: W
LayerCount: 2
Fore
SplineSet
136 576 m 1,0,-1
 136 768 l 1,1,-1
 424 768 l 1,2,-1
 424 672 l 1,3,-1
 520 672 l 1,4,-1
 520 384 l 1,5,-1
 424 384 l 1,6,-1
 424 96 l 1,7,-1
 520 96 l 1,8,-1
 520 0 l 1,9,-1
 616 0 l 1,10,-1
 616 96 l 1,11,-1
 712 96 l 1,12,-1
 712 288 l 1,13,-1
 616 288 l 1,14,-1
 616 576 l 1,15,-1
 712 576 l 1,16,-1
 712 672 l 1,17,-1
 904 672 l 1,18,-1
 904 576 l 1,19,-1
 1000 576 l 1,20,-1
 1000 384 l 1,21,-1
 1096 384 l 1,22,-1
 1096 -96 l 1,23,-1
 1000 -96 l 1,24,-1
 1000 -288 l 1,25,-1
 904 -288 l 1,26,-1
 904 -384 l 1,27,-1
 232 -384 l 1,28,-1
 232 -288 l 1,29,-1
 136 -288 l 1,30,-1
 136 -96 l 1,31,-1
 40 -96 l 1,32,-1
 40 576 l 1,33,-1
 136 576 l 1,0,-1
EndSplineSet
EndChar

StartChar: v
Encoding: 118 118 85
Width: 1152
GlyphClass: 2
Flags: W
LayerCount: 2
Fore
SplineSet
136 672 m 1,0,-1
 136 768 l 1,1,-1
 424 768 l 1,2,-1
 424 672 l 1,3,-1
 520 672 l 1,4,-1
 520 96 l 1,5,-1
 616 96 l 1,6,-1
 616 384 l 1,7,-1
 712 384 l 1,8,-1
 712 576 l 1,9,-1
 808 576 l 1,10,-1
 808 672 l 1,11,-1
 1000 672 l 1,12,-1
 1000 576 l 1,13,-1
 1096 576 l 1,14,-1
 1096 192 l 1,15,-1
 1000 192 l 1,16,-1
 1000 0 l 1,17,-1
 904 0 l 1,18,-1
 904 -192 l 1,19,-1
 808 -192 l 1,20,-1
 808 -288 l 1,21,-1
 712 -288 l 1,22,-1
 712 -384 l 1,23,-1
 328 -384 l 1,24,-1
 328 -288 l 1,25,-1
 232 -288 l 1,26,-1
 232 -96 l 1,27,-1
 136 -96 l 1,28,-1
 136 288 l 1,29,-1
 40 288 l 1,30,-1
 40 672 l 1,31,-1
 136 672 l 1,0,-1
EndSplineSet
EndChar

StartChar: w
Encoding: 119 119 86
Width: 1248
GlyphClass: 2
Flags: W
LayerCount: 2
Fore
SplineSet
136 672 m 1,0,-1
 136 768 l 1,1,-1
 328 768 l 1,2,-1
 328 672 l 1,3,-1
 424 672 l 1,4,-1
 424 192 l 1,5,-1
 520 192 l 1,6,-1
 520 288 l 1,7,-1
 712 288 l 1,8,-1
 712 192 l 1,9,-1
 808 192 l 1,10,-1
 808 672 l 1,11,-1
 904 672 l 1,12,-1
 904 768 l 1,13,-1
 1096 768 l 1,14,-1
 1096 672 l 1,15,-1
 1192 672 l 1,16,-1
 1192 96 l 1,17,-1
 1096 96 l 1,18,-1
 1096 -192 l 1,19,-1
 1000 -192 l 1,20,-1
 1000 -288 l 1,21,-1
 904 -288 l 1,22,-1
 904 -384 l 1,23,-1
 712 -384 l 1,24,-1
 712 -288 l 1,25,-1
 520 -288 l 1,26,-1
 520 -384 l 1,27,-1
 328 -384 l 1,28,-1
 328 -288 l 1,29,-1
 232 -288 l 1,30,-1
 232 -96 l 1,31,-1
 136 -96 l 1,32,-1
 136 192 l 1,33,-1
 40 192 l 1,34,-1
 40 672 l 1,35,-1
 136 672 l 1,0,-1
EndSplineSet
EndChar

StartChar: x
Encoding: 120 120 87
Width: 1248
GlyphClass: 2
Flags: W
LayerCount: 2
Fore
SplineSet
232 672 m 1,0,-1
 232 768 l 1,1,-1
 424 768 l 1,2,-1
 424 672 l 1,3,-1
 520 672 l 1,4,-1
 520 576 l 1,5,-1
 712 576 l 1,6,-1
 712 672 l 1,7,-1
 808 672 l 1,8,-1
 808 768 l 1,9,-1
 1000 768 l 1,10,-1
 1000 672 l 1,11,-1
 1096 672 l 1,12,-1
 1096 480 l 1,13,-1
 1000 480 l 1,14,-1
 1000 384 l 1,15,-1
 904 384 l 1,16,-1
 904 288 l 1,17,-1
 1000 288 l 1,18,-1
 1000 192 l 1,19,-1
 1096 192 l 1,20,-1
 1096 0 l 1,21,-1
 1192 0 l 1,22,-1
 1192 -288 l 1,23,-1
 1096 -288 l 1,24,-1
 1096 -384 l 1,25,-1
 904 -384 l 1,26,-1
 904 -288 l 1,27,-1
 808 -288 l 1,28,-1
 808 -96 l 1,29,-1
 712 -96 l 1,30,-1
 712 0 l 1,31,-1
 520 0 l 1,32,-1
 520 -96 l 1,33,-1
 424 -96 l 1,34,-1
 424 -288 l 1,35,-1
 328 -288 l 1,36,-1
 328 -384 l 1,37,-1
 136 -384 l 1,38,-1
 136 -288 l 1,39,-1
 40 -288 l 1,40,-1
 40 0 l 1,41,-1
 136 0 l 1,42,-1
 136 192 l 1,43,-1
 232 192 l 1,44,-1
 232 288 l 1,45,-1
 328 288 l 1,46,-1
 328 384 l 1,47,-1
 232 384 l 1,48,-1
 232 480 l 1,49,-1
 136 480 l 1,50,-1
 136 672 l 1,51,-1
 232 672 l 1,0,-1
EndSplineSet
EndChar

StartChar: y
Encoding: 121 121 88
Width: 1056
GlyphClass: 2
Flags: W
LayerCount: 2
Fore
SplineSet
712 672 m 1,0,-1
 712 768 l 1,1,-1
 904 768 l 1,2,-1
 904 672 l 1,3,-1
 1000 672 l 1,4,-1
 1000 288 l 1,5,-1
 904 288 l 1,6,-1
 904 96 l 1,7,-1
 808 96 l 1,8,-1
 808 -96 l 1,9,-1
 712 -96 l 1,10,-1
 712 -288 l 1,11,-1
 616 -288 l 1,12,-1
 616 -384 l 1,13,-1
 424 -384 l 1,14,-1
 424 -288 l 1,15,-1
 328 -288 l 1,16,-1
 328 0 l 1,17,-1
 424 0 l 1,18,-1
 424 96 l 1,19,-1
 328 96 l 1,20,-1
 328 192 l 1,21,-1
 232 192 l 1,22,-1
 232 288 l 1,23,-1
 136 288 l 1,24,-1
 136 384 l 1,25,-1
 40 384 l 1,26,-1
 40 576 l 1,27,-1
 136 576 l 1,28,-1
 136 672 l 1,29,-1
 424 672 l 1,30,-1
 424 576 l 1,31,-1
 520 576 l 1,32,-1
 520 480 l 1,33,-1
 616 480 l 1,34,-1
 616 672 l 1,35,-1
 712 672 l 1,0,-1
EndSplineSet
EndChar

StartChar: z
Encoding: 122 122 89
Width: 1056
GlyphClass: 2
Flags: W
LayerCount: 2
Fore
SplineSet
232 672 m 1,0,-1
 232 768 l 1,1,-1
 712 768 l 1,2,-1
 712 672 l 1,3,-1
 904 672 l 1,4,-1
 904 384 l 1,5,-1
 808 384 l 1,6,-1
 808 192 l 1,7,-1
 712 192 l 1,8,-1
 712 96 l 1,9,-1
 616 96 l 1,10,-1
 616 0 l 1,11,-1
 904 0 l 1,12,-1
 904 -96 l 1,13,-1
 1000 -96 l 1,14,-1
 1000 -288 l 1,15,-1
 904 -288 l 1,16,-1
 904 -384 l 1,17,-1
 136 -384 l 1,18,-1
 136 -288 l 1,19,-1
 40 -288 l 1,20,-1
 40 -96 l 1,21,-1
 136 -96 l 1,22,-1
 136 96 l 1,23,-1
 232 96 l 1,24,-1
 232 192 l 1,25,-1
 328 192 l 1,26,-1
 328 288 l 1,27,-1
 424 288 l 1,28,-1
 424 384 l 1,29,-1
 232 384 l 1,30,-1
 232 480 l 1,31,-1
 136 480 l 1,32,-1
 136 672 l 1,33,-1
 232 672 l 1,0,-1
EndSplineSet
EndChar

StartChar: Ntilde
Encoding: 209 209 90
Width: 1248
Flags: WO
LayerCount: 2
Back
SplineSet
232 672 m 1,0,-1
 232 768 l 1,1,-1
 520 768 l 1,2,-1
 520 672 l 1,3,-1
 616 672 l 1,4,-1
 616 480 l 1,5,-1
 712 480 l 1,6,-1
 712 192 l 1,7,-1
 808 192 l 1,8,-1
 808 672 l 1,9,-1
 904 672 l 1,10,-1
 904 768 l 1,11,-1
 1096 768 l 1,12,-1
 1096 672 l 1,13,-1
 1192 672 l 1,14,-1
 1192 96 l 1,15,-1
 1096 96 l 1,16,-1
 1096 -288 l 1,17,-1
 1000 -288 l 1,18,-1
 1000 -384 l 1,19,-1
 712 -384 l 1,20,-1
 712 -288 l 1,21,-1
 616 -288 l 1,22,-1
 616 -96 l 1,23,-1
 520 -96 l 1,24,-1
 520 192 l 1,25,-1
 424 192 l 1,26,-1
 424 -288 l 1,27,-1
 328 -288 l 1,28,-1
 328 -384 l 1,29,-1
 136 -384 l 1,30,-1
 136 -288 l 1,31,-1
 40 -288 l 1,32,-1
 40 288 l 1,33,-1
 136 288 l 1,34,-1
 136 672 l 1,35,-1
 232 672 l 1,0,-1
EndSplineSet
Fore
SplineSet
180 824 m 29,0,-1
 180 712 l 25,1,-1
 1140 714 l 24,2,-1
 1140 816 l 25,3,-1
 180 824 l 29,0,-1
232 672 m 1,4,-1
 228 744 l 1,5,-1
 528 740 l 1,6,-1
 520 672 l 1,7,-1
 616 672 l 1,8,-1
 616 480 l 1,9,-1
 712 480 l 1,10,-1
 712 192 l 1,11,-1
 808 192 l 1,12,-1
 808 672 l 1,13,-1
 904 672 l 1,14,-1
 908 744 l 1,15,-1
 1096 744 l 1,16,-1
 1096 672 l 1,17,-1
 1192 672 l 1,18,-1
 1192 96 l 1,19,-1
 1096 96 l 1,20,-1
 1096 -288 l 1,21,-1
 1000 -288 l 1,22,-1
 1000 -384 l 1,23,-1
 712 -384 l 1,24,-1
 712 -288 l 1,25,-1
 616 -288 l 1,26,-1
 616 -96 l 1,27,-1
 520 -96 l 1,28,-1
 520 192 l 1,29,-1
 424 192 l 1,30,-1
 424 -288 l 1,31,-1
 328 -288 l 1,32,-1
 328 -384 l 1,33,-1
 136 -384 l 1,34,-1
 136 -288 l 1,35,-1
 40 -288 l 1,36,-1
 40 288 l 1,37,-1
 136 288 l 1,38,-1
 136 672 l 1,39,-1
 232 672 l 1,4,-1
EndSplineSet
EndChar
